<?xml version="1.0" standalone="no"?>
<!DOCTYPE svg PUBLIC "-//W3C//DTD SVG 20010904//EN"
 "http://www.w3.org/TR/2001/REC-SVG-20010904/DTD/svg10.dtd">
<svg version="1.0" xmlns="http://www.w3.org/2000/svg"
 width="160.000000pt" height="160.000000pt" viewBox="0 0 160.000000 160.000000"
 preserveAspectRatio="xMidYMid meet">
<metadata>
Created by potrace 1.14, written by Peter Selinger 2001-2017
</metadata>
<g transform="translate(0.000000,160.000000) scale(0.100000,-0.100000)"
fill="#000000" stroke="none">
<path d="M700 1513 c-313 -41 -425 -213 -210 -320 261 -130 740 -46 740 130 0
71 -88 140 -221 172 -66 16 -248 27 -309 18z m320 -102 c96 -31 132 -55 128
-88 -4 -34 -45 -63 -124 -89 -85 -28 -353 -28 -438 0 -85 28 -121 55 -121 91
0 26 7 33 55 58 84 42 176 57 315 53 85 -3 139 -10 185 -25z"/>
<path d="M673 926 c-101 -33 -188 -119 -217 -213 -7 -23 -7 -23 100 -23 104 0
107 1 141 30 33 29 56 35 118 31 75 -5 115 -45 115 -116 l0 -35 -120 0 c-180
0 -261 -23 -327 -92 -44 -46 -63 -97 -63 -170 1 -151 110 -249 278 -251 88 0
145 20 205 72 l36 32 12 -45 11 -46 94 0 94 0 0 293 c0 323 -5 360 -59 434
-20 28 -51 51 -96 74 -61 30 -76 33 -173 36 -71 2 -121 -2 -149 -11z m257
-518 c0 -93 -107 -162 -212 -139 -53 12 -78 41 -78 91 0 30 6 43 26 59 24 19
40 21 145 21 l119 0 0 -32z"/>
</g>
</svg>
