<?xml version="1.0" standalone="no"?>
<!DOCTYPE svg PUBLIC "-//W3C//DTD SVG 20010904//EN"
 "http://www.w3.org/TR/2001/REC-SVG-20010904/DTD/svg10.dtd">
<svg version="1.0" xmlns="http://www.w3.org/2000/svg"
 width="500.000000pt" height="500.000000pt" viewBox="0 0 500.000000 500.000000"
 preserveAspectRatio="xMidYMid meet">
<metadata>
Created by potrace 1.14, written by Peter Selinger 2001-2017
</metadata>
<g transform="translate(0.000000,500.000000) scale(0.100000,-0.100000)"
fill="#000000" stroke="none">
<path d="M2066 4502 l1 -437 34 -19 c19 -11 36 -24 37 -28 2 -4 10 -8 17 -8 8
0 34 -13 57 -29 24 -16 46 -27 50 -25 5 3 8 0 8 -5 0 -6 18 -18 40 -27 22 -9
40 -20 40 -25 0 -5 5 -9 10 -9 6 0 28 -11 49 -24 21 -14 42 -22 45 -19 3 4 6
1 6 -5 0 -7 16 -18 35 -26 19 -8 35 -20 35 -26 0 -6 4 -9 9 -5 5 3 30 -8 54
-25 25 -16 50 -30 56 -30 6 0 11 -5 11 -11 0 -5 5 -7 10 -4 6 3 10 1 10 -4 0
-6 7 -11 15 -11 8 0 15 -5 15 -12 0 -6 3 -8 6 -5 4 3 18 -3 32 -13 13 -11 31
-20 38 -20 8 0 14 -4 14 -9 0 -5 11 -12 25 -15 29 -7 33 -24 8 -33 -10 -3 -31
-16 -48 -28 -16 -12 -37 -25 -45 -29 -47 -22 -285 -160 -290 -167 -3 -4 -12
-9 -20 -11 -8 -2 -22 -10 -30 -18 -8 -8 -22 -16 -30 -18 -8 -2 -18 -9 -22 -15
-4 -7 -8 -8 -8 -3 0 4 -15 -3 -32 -16 -18 -14 -48 -31 -65 -39 -18 -8 -33 -17
-33 -21 0 -3 -14 -9 -31 -13 -17 -4 -33 -13 -36 -21 -3 -8 -9 -11 -14 -8 -5 3
-9 1 -9 -4 0 -6 -13 -15 -30 -21 -16 -5 -30 -15 -30 -21 0 -6 -4 -9 -9 -5 -5
3 -16 -1 -23 -9 -8 -7 -24 -17 -36 -20 -12 -4 -22 -12 -22 -18 0 -6 -3 -8 -6
-5 -4 4 -19 -1 -33 -11 -14 -10 -38 -24 -53 -32 -16 -7 -28 -17 -28 -22 0 -4
-9 -8 -20 -8 -11 0 -20 -5 -20 -11 0 -5 -4 -8 -9 -5 -5 3 -12 -1 -15 -10 -3
-8 -10 -13 -15 -10 -5 4 -16 1 -23 -6 -20 -19 -48 -35 -90 -55 -21 -10 -38
-21 -38 -25 0 -5 -7 -8 -16 -8 -9 0 -12 -5 -8 -12 4 -7 3 -8 -5 -4 -7 5 -27
-4 -46 -19 -19 -14 -35 -23 -35 -19 0 4 -9 -1 -20 -11 -11 -10 -20 -15 -20
-11 0 4 -6 2 -12 -4 -24 -20 -88 -59 -88 -54 0 3 -15 -6 -33 -20 l-32 -25 1
-873 c1 -480 2 -879 3 -886 0 -7 5 -11 10 -8 5 3 14 -1 21 -9 7 -8 16 -15 20
-15 6 0 112 -61 195 -112 11 -7 23 -12 27 -13 9 0 45 -25 64 -43 8 -7 14 -10
14 -6 0 3 7 1 15 -6 8 -7 15 -9 15 -4 0 5 4 4 8 -2 4 -6 41 -30 82 -54 41 -24
77 -47 78 -52 2 -4 8 -6 13 -3 5 4 19 -3 31 -14 12 -12 28 -21 35 -21 7 0 13
-5 13 -12 0 -6 3 -8 6 -5 4 3 18 -3 32 -13 13 -11 31 -20 38 -20 8 0 14 -4 14
-9 0 -5 16 -15 35 -22 19 -7 35 -17 35 -21 0 -4 5 -8 11 -8 6 0 30 -14 55 -30
24 -17 44 -28 44 -24 0 4 8 0 18 -8 9 -8 44 -30 77 -48 33 -19 63 -38 66 -43
3 -5 8 -8 10 -7 8 4 59 -24 59 -32 0 -4 4 -7 9 -5 5 1 18 -4 28 -11 42 -28
133 -80 133 -76 0 3 7 -1 15 -8 25 -22 40 -33 52 -35 6 -1 28 -14 49 -28 20
-14 42 -25 48 -25 6 0 22 -9 36 -20 34 -27 37 -25 42 15 2 19 0 35 -5 35 -4 0
-5 5 -1 12 9 14 9 82 0 96 -4 7 -4 12 1 12 10 0 9 52 -1 68 -4 7 -4 12 1 12
10 0 9 52 -1 68 -4 7 -4 12 1 12 10 0 9 52 -1 68 -4 7 -4 12 1 12 9 0 9 230 0
254 -4 9 -3 16 1 16 4 0 6 39 5 87 -1 78 -3 88 -24 104 -13 10 -27 15 -31 13
-5 -3 -11 2 -14 10 -3 9 -15 16 -25 16 -10 0 -19 4 -19 8 0 5 -26 22 -57 37
-32 16 -60 32 -63 35 -3 3 -25 16 -50 29 -25 14 -47 27 -50 30 -3 3 -23 15
-45 27 -55 28 -89 48 -95 55 -3 3 -21 13 -40 23 -72 37 -100 54 -134 80 -19
14 -41 26 -48 26 -7 0 -24 9 -38 20 -14 11 -31 20 -37 20 -7 0 -13 3 -13 6 0
11 42 44 57 44 7 0 13 4 13 10 0 5 11 12 25 16 14 3 25 10 25 15 0 5 6 9 14 9
7 0 25 9 38 20 14 10 28 16 32 13 3 -3 6 -1 6 5 0 7 7 12 15 12 8 0 15 5 15
12 0 6 3 8 6 5 4 -3 18 3 32 13 13 11 31 20 38 20 8 0 14 5 14 10 0 6 6 10 14
10 8 0 16 3 18 8 2 4 21 16 43 27 22 11 42 22 45 25 3 3 26 16 53 30 26 13 47
28 47 33 0 4 4 6 9 3 5 -3 14 1 21 9 7 8 19 15 26 15 8 0 14 4 14 8 0 4 15 15
33 23 52 25 102 53 108 62 3 5 14 9 23 11 10 1 22 9 27 17 5 8 9 10 9 4 0 -7
3 -7 8 0 8 11 71 48 115 67 15 7 27 16 27 20 0 4 7 8 15 8 8 0 15 5 15 10 0 6
5 10 12 10 6 0 20 8 31 17 15 13 18 14 12 3 -4 -8 3 -5 16 6 13 12 34 25 47
29 12 3 22 11 22 16 0 5 8 9 19 9 10 0 24 7 31 16 8 8 27 22 44 30 37 17 119
65 126 73 13 15 52 31 62 25 7 -4 8 -3 4 4 -4 7 -4 12 1 12 4 0 24 10 43 22
19 12 39 22 45 23 5 0 14 9 20 21 11 22 14 1742 2 1760 -3 6 -24 19 -46 30
-23 10 -41 22 -41 25 0 3 -16 11 -35 19 -19 8 -35 17 -35 22 0 4 -7 8 -15 8
-8 0 -15 5 -15 11 0 5 -4 7 -10 4 -5 -3 -10 -1 -10 4 0 6 -9 11 -19 11 -11 0
-21 4 -23 9 -4 10 -50 39 -128 78 -30 15 -64 36 -74 45 -11 10 -28 18 -38 18
-10 0 -18 4 -18 8 0 5 -21 20 -47 33 -27 13 -49 27 -51 32 -2 4 -10 7 -18 7
-8 0 -14 4 -14 9 0 5 -11 12 -24 15 -14 3 -31 12 -38 19 -8 6 -27 19 -43 28
-84 44 -122 66 -139 81 -10 10 -23 15 -28 12 -4 -3 -11 2 -14 10 -3 9 -10 13
-15 10 -5 -3 -9 0 -9 6 0 6 -4 8 -10 5 -5 -3 -10 -1 -10 6 0 7 -3 10 -6 6 -4
-3 -13 1 -21 9 -8 8 -19 12 -24 9 -5 -4 -9 -2 -9 3 0 4 -17 17 -37 28 -57 31
-87 48 -93 54 -3 3 -27 17 -53 30 -26 14 -56 32 -65 41 -9 8 -19 16 -22 16
-16 4 -60 27 -95 48 -22 14 -47 28 -55 32 -8 3 -26 14 -40 23 -14 10 -34 20
-45 24 -20 6 -20 1 -19 -432z"/>
</g>
</svg>
