<svg xmlns="http://www.w3.org/2000/svg" version="1.1" xmlns:xlink="http://www.w3.org/1999/xlink" width="526" height="526"><svg width="526" height="526" viewBox="0 0 526 526" fill="none" xmlns="http://www.w3.org/2000/svg">
<rect width="526" height="526" fill="#DC415A"></rect>
<path d="M35 57V126.936H114.134V227.947H58.857V293.058H114.134V470H313.936C345.856 470 372.91 467.42 394.31 462.309L394.524 462.261C414.66 456.839 433.03 447.046 449.085 433.193C476.235 410.335 490 381.887 490 348.615C490 323.273 482.199 300.725 466.906 281.641C454.334 265.614 437.801 253.48 417.594 245.479C438.063 225.94 448.417 202.533 448.417 175.781C448.417 159.038 444.219 142.294 435.964 126.052C427.256 108.64 415.9 94.1655 403.041 84.1098L402.66 83.8231C380.115 66.5302 351.987 57 323.478 57H35ZM198.539 126.936H302.556C324.29 126.936 340.87 131.307 351.844 139.93C362.437 148.266 367.566 160.328 367.566 176.832C367.566 193.337 362.532 206.355 352.178 214.858C341.514 223.6 323.908 228.018 299.86 228.018H198.516V126.936H198.539ZM386.151 384.204C372.743 393.878 350.866 398.774 321.117 398.774H198.563V293.058H313.339C348.958 293.058 373.673 298.337 386.866 308.775C400.059 319.093 406.477 331.37 406.477 346.298C406.477 361.227 399.845 374.053 386.175 384.204H386.151Z" fill="white"></path>
</svg><style>@media (prefers-color-scheme: light) { :root { filter: none; } }
@media (prefers-color-scheme: dark) { :root { filter: none; } }
</style></svg>