<?xml version="1.0" encoding="UTF-8" standalone="no"?><!DOCTYPE svg PUBLIC "-//W3C//DTD SVG 1.1//EN" "http://www.w3.org/Graphics/SVG/1.1/DTD/svg11.dtd"><svg width="100%" height="100%" viewBox="0 0 96 96" version="1.1" xmlns="http://www.w3.org/2000/svg" xmlns:xlink="http://www.w3.org/1999/xlink" xml:space="preserve" xmlns:serif="http://www.serif.com/" style="fill-rule:evenodd;clip-rule:evenodd;stroke-linejoin:round;stroke-miterlimit:2;"><rect id="favicon-96x96" serif:id="favicon 96x96" x="0" y="0" width="96" height="96" style="fill:#054063;"/><path d="M58.571,46.781c2.083,0.66 3.715,1.762 4.895,3.307c1.181,1.546 1.771,3.447 1.771,5.704c0,3.194 -1.241,5.651 -3.724,7.37c-2.482,1.719 -6.102,2.578 -10.859,2.578l-18.854,0l0,-36.461l17.812,0c4.445,0 7.856,0.851 10.235,2.553c2.378,1.701 3.567,4.01 3.567,6.927c0,1.771 -0.425,3.351 -1.276,4.74c-0.85,1.389 -2.04,2.483 -3.567,3.282Zm-18.386,-11.147l0,8.594l8.386,0c2.083,0 3.663,-0.364 4.739,-1.093c1.077,-0.73 1.615,-1.806 1.615,-3.23c-0,-1.423 -0.538,-2.491 -1.615,-3.203c-1.076,-0.712 -2.656,-1.068 -4.739,-1.068l-8.386,0Zm9.844,23.752c2.222,-0 3.897,-0.365 5.026,-1.094c1.128,-0.729 1.693,-1.858 1.693,-3.386c-0,-3.021 -2.24,-4.531 -6.719,-4.531l-9.844,-0l0,9.011l9.844,-0Z" style="fill:#fff;fill-rule:nonzero;"/><path d="M79.665,34.669l-8.137,0l0,-13.604l-13.602,0l-0,-8.132l21.739,0l0,21.736Z" style="fill:#cbdc00;fill-rule:nonzero;"/></svg>