<?xml version="1.0" standalone="no"?>
<!DOCTYPE svg PUBLIC "-//W3C//DTD SVG 20010904//EN"
        "http://www.w3.org/TR/2001/REC-SVG-20010904/DTD/svg10.dtd">
<svg version="1.0" xmlns="http://www.w3.org/2000/svg"
     width="1024.000000pt" height="1024.000000pt" viewBox="0 0 1024.000000 1024.000000"
     preserveAspectRatio="xMidYMid meet">
    <metadata>
        Created by potrace 1.14, written by Peter Selinger 2001-2017
    </metadata>
    <g transform="translate(0.000000,1024.000000) scale(0.100000,-0.100000)"
       fill="#000000" stroke="none">
        <path d="M7885 8586 c-22 -12 -58 -33 -80 -46 -22 -13 -65 -37 -95 -54 -30
-16 -61 -36 -68 -43 -7 -7 -17 -13 -22 -13 -7 0 -183 -100 -230 -130 -8 -6
-26 -16 -40 -22 -14 -7 -48 -27 -77 -45 -29 -18 -57 -33 -63 -33 -5 0 -10 -4
-10 -9 0 -5 -8 -11 -17 -14 -18 -6 -44 -21 -158 -88 -33 -19 -67 -38 -75 -42
-8 -4 -28 -16 -45 -27 -16 -10 -46 -27 -65 -37 -19 -9 -37 -19 -40 -22 -8 -10
-84 -52 -102 -58 -10 -3 -18 -9 -18 -14 0 -5 -4 -9 -10 -9 -5 0 -69 -35 -142
-78 -74 -43 -140 -82 -148 -86 -8 -4 -24 -12 -35 -19 -27 -16 -171 -99 -215
-124 -19 -11 -91 -53 -160 -93 -69 -40 -173 -100 -232 -134 -59 -33 -108 -65
-108 -69 0 -4 8 -11 18 -14 9 -4 19 -9 22 -12 3 -3 25 -17 50 -30 25 -13 53
-31 63 -39 9 -8 17 -11 17 -7 0 4 8 1 18 -7 9 -8 91 -57 182 -108 91 -51 172
-99 181 -107 9 -7 19 -10 22 -6 4 3 7 1 7 -5 0 -7 4 -12 10 -12 5 0 39 -18 75
-40 36 -22 68 -40 71 -40 3 0 28 -15 57 -33 29 -18 66 -40 82 -49 17 -8 84
-46 150 -85 66 -38 140 -81 165 -95 25 -14 61 -35 80 -46 19 -12 46 -27 60
-35 14 -8 65 -37 114 -65 49 -29 93 -52 97 -52 5 0 9 -3 9 -8 0 -4 15 -13 33
-21 17 -8 34 -17 37 -20 3 -3 25 -17 50 -30 25 -13 53 -31 63 -39 9 -8 17 -12
17 -9 0 3 28 -12 63 -33 34 -22 82 -50 107 -63 25 -13 61 -34 80 -45 34 -21
58 -35 191 -110 37 -20 77 -44 90 -53 l23 -16 0 -1329 c1 -731 3 -1329 6
-1328 27 6 50 17 50 25 0 5 6 9 13 9 7 0 36 16 66 35 29 19 55 35 57 35 3 0
49 26 102 58 53 31 108 63 122 70 14 7 34 18 45 25 69 42 147 87 152 87 4 0
14 6 22 14 9 7 36 24 61 37 25 13 47 26 50 29 3 3 14 10 25 16 43 23 114 64
198 113 49 28 92 51 97 51 5 0 10 3 12 8 3 6 87 57 204 123 18 10 51 29 73 43
22 15 45 26 50 26 5 0 14 7 21 15 7 8 21 15 30 15 10 0 20 4 22 8 2 7 356 215
508 300 25 13 51 29 58 35 8 6 31 20 52 31 22 12 77 43 124 70 l86 50 0 1338
c0 949 -3 1338 -11 1338 -6 0 -65 32 -132 71 -67 40 -147 85 -177 102 -30 16
-67 38 -82 49 -14 10 -28 18 -31 18 -5 0 -145 80 -177 100 -8 6 -22 13 -30 17
-8 4 -38 22 -67 40 -29 18 -54 33 -57 33 -3 0 -55 29 -116 65 -61 36 -130 76
-153 89 -23 13 -71 40 -107 61 -36 21 -90 51 -120 68 -30 17 -57 33 -60 37 -3
4 -15 10 -27 14 -13 4 -29 13 -35 19 -7 7 -38 25 -68 41 -30 16 -103 58 -161
93 -59 34 -109 63 -111 63 -4 0 -170 96 -208 120 -8 6 -31 18 -50 28 -19 9
-37 19 -40 22 -7 7 -43 29 -60 37 -8 4 -64 35 -123 70 -60 35 -109 63 -110 62
-1 0 -20 -11 -42 -23z"/>
        <path d="M2268 8436 c-16 -5 -28 -13 -28 -18 0 -4 -4 -8 -9 -8 -5 0 -38 -18
-72 -40 -35 -21 -83 -49 -106 -61 -24 -13 -43 -27 -43 -31 0 -5 -4 -6 -10 -3
-5 3 -10 1 -10 -4 0 -6 -4 -11 -8 -11 -9 0 -468 -272 -489 -290 -7 -6 -13 -7
-13 -3 0 4 -4 3 -8 -3 -4 -6 -26 -22 -49 -35 -23 -13 -169 -100 -325 -194
-155 -93 -287 -172 -293 -174 -5 -2 -12 -7 -15 -11 -3 -4 -30 -20 -60 -36 -30
-16 -57 -32 -60 -35 -5 -6 -117 -72 -161 -94 -10 -5 -19 -13 -19 -17 0 -5 -4
-8 -10 -8 -5 0 -40 -19 -77 -42 -38 -23 -77 -46 -88 -52 -11 -6 -64 -38 -119
-71 -54 -33 -118 -71 -141 -85 -24 -14 -46 -27 -49 -30 -2 -3 23 -21 57 -39
82 -45 147 -80 236 -130 41 -22 77 -41 82 -41 4 0 9 -3 11 -7 2 -5 19 -16 38
-25 19 -10 49 -26 65 -36 17 -9 71 -40 120 -67 50 -27 108 -60 130 -73 22 -12
48 -25 58 -29 9 -3 17 -9 17 -14 0 -5 9 -9 19 -9 11 0 21 -4 23 -8 2 -4 32
-23 68 -41 36 -19 67 -36 70 -40 3 -3 34 -21 70 -40 36 -18 137 -73 224 -122
88 -49 163 -89 168 -89 4 0 8 -5 8 -12 0 -6 3 -8 7 -5 3 4 12 2 20 -5 18 -15
315 -178 324 -178 4 0 9 -3 11 -7 2 -5 19 -16 38 -25 19 -10 53 -28 75 -41 22
-13 90 -51 150 -84 61 -33 128 -70 150 -83 22 -12 65 -36 95 -53 30 -16 89
-48 130 -72 41 -23 102 -57 135 -75 33 -18 114 -63 180 -100 66 -37 152 -84
190 -105 39 -21 84 -47 100 -57 17 -10 39 -22 50 -27 11 -5 58 -31 105 -58 47
-27 100 -56 118 -64 17 -7 32 -17 32 -21 0 -5 4 -8 8 -8 8 0 97 -48 297 -160
109 -61 120 -66 180 -100 33 -18 74 -40 90 -50 32 -19 89 -50 195 -108 36 -19
70 -38 75 -42 6 -4 39 -23 75 -42 73 -39 207 -114 230 -128 16 -10 126 -71
245 -135 39 -21 88 -49 110 -62 22 -12 63 -35 91 -49 l52 -27 2 -116 c1 -64 4
-204 6 -311 2 -107 6 -334 8 -505 3 -170 8 -438 11 -595 7 -405 18 -1015 18
-1082 l0 -58 36 21 c20 12 60 36 89 53 29 17 69 41 90 54 20 12 45 25 55 28 9
4 17 10 17 14 0 4 8 10 18 14 9 3 31 14 47 24 106 66 288 172 295 172 5 0 10
3 12 8 2 6 127 83 230 142 50 29 103 60 140 82 52 33 234 140 266 158 15 8 29
17 32 20 10 10 65 41 83 47 9 3 17 9 17 14 0 5 6 9 13 9 8 0 24 9 37 20 13 11
29 20 37 20 7 0 13 5 13 10 0 6 4 10 9 10 4 0 73 39 152 86 79 48 158 94 174
104 17 9 100 59 185 110 85 51 172 102 192 113 43 23 52 42 50 107 -3 91 -12
583 -17 895 -3 176 -7 444 -10 595 -3 151 -8 417 -10 590 -3 173 -6 361 -7
418 -1 73 -5 102 -14 102 -7 0 -19 6 -26 13 -7 6 -38 25 -68 41 -30 16 -64 34
-75 40 -11 6 -28 17 -37 25 -10 8 -18 10 -18 6 0 -4 -8 -1 -17 7 -10 8 -54 35
-98 58 -44 24 -84 46 -90 50 -5 4 -44 25 -85 47 -41 22 -97 53 -125 68 -27 16
-102 57 -165 93 -63 35 -120 68 -126 73 -6 5 -14 6 -17 2 -4 -3 -7 -2 -7 4 0
6 -8 13 -17 16 -10 4 -49 24 -88 46 -38 23 -81 46 -95 53 -14 7 -27 15 -30 18
-3 3 -21 13 -40 22 -31 15 -63 33 -190 105 -19 11 -71 39 -115 63 -44 23 -84
46 -90 50 -5 4 -41 24 -80 45 -61 33 -120 66 -355 197 -25 14 -61 34 -80 45
-19 11 -71 39 -115 63 -44 24 -102 56 -128 72 -26 15 -50 28 -52 28 -2 0 -26
13 -52 28 -26 16 -79 45 -116 66 -37 20 -84 46 -105 58 -86 48 -201 113 -262
146 -36 19 -74 40 -85 46 -11 6 -28 17 -37 25 -10 8 -18 10 -18 6 0 -4 -8 -1
-17 7 -10 8 -25 18 -33 22 -8 3 -42 22 -75 41 -33 19 -76 42 -95 53 -19 10
-62 33 -95 52 -65 36 -90 50 -175 97 -30 17 -83 47 -117 66 -35 20 -63 33 -63
29 0 -4 -4 -2 -8 4 -4 6 -43 30 -87 54 -44 23 -84 46 -90 50 -5 4 -46 27 -90
50 -120 65 -120 65 -125 70 -3 3 -23 14 -45 26 -22 11 -60 32 -85 46 -71 40
-183 102 -275 152 -11 6 -22 13 -25 16 -3 3 -21 13 -40 22 -19 10 -64 34 -100
53 -36 20 -83 46 -105 58 -22 12 -42 24 -45 27 -3 3 -27 17 -55 30 -27 14 -52
27 -55 31 -3 3 -17 1 -32 -5z"/>
    </g>
</svg>
