<?xml version="1.0" standalone="no"?>
<!DOCTYPE svg PUBLIC "-//W3C//DTD SVG 20010904//EN"
 "http://www.w3.org/TR/2001/REC-SVG-20010904/DTD/svg10.dtd">
<svg version="1.0" xmlns="http://www.w3.org/2000/svg"
 width="1335.000000pt" height="1335.000000pt" viewBox="0 0 1335.000000 1335.000000"
 preserveAspectRatio="xMidYMid meet">
<metadata>
Created by potrace 1.14, written by Peter Selinger 2001-2017
</metadata>
<g transform="translate(0.000000,1335.000000) scale(0.100000,-0.100000)"
fill="#000000" stroke="none">
<path d="M0 6675 l0 -6675 6675 0 6675 0 0 6675 0 6675 -6675 0 -6675 0 0
-6675z m7190 3816 c281 -35 509 -83 700 -147 146 -49 407 -181 519 -261 284
-204 465 -477 531 -803 60 -293 23 -611 -100 -865 -179 -373 -566 -638 -1105
-758 -119 -27 -119 -27 20 -47 255 -36 550 -136 748 -253 477 -284 727 -744
727 -1341 0 -432 -127 -778 -388 -1057 -275 -294 -712 -497 -1232 -573 -273
-40 -315 -41 -1715 -41 l-1360 0 -3 3083 -2 3083 1282 -4 c904 -3 1311 -8
1378 -16z"/>
<path d="M5350 8874 l0 -1095 783 4 c525 3 808 8 862 16 387 57 630 155 819
332 194 181 286 418 287 734 0 379 -144 668 -423 849 -137 89 -244 135 -418
180 -258 68 -387 76 -1212 76 l-698 0 0 -1096z"/>
<path d="M5350 6070 l0 -1190 768 0 c814 0 1025 7 1217 40 571 97 904 387
1000 872 20 100 28 383 14 483 -26 185 -102 381 -192 501 -185 244 -466 385
-917 460 -93 16 -206 18 -997 21 l-893 4 0 -1191z"/>
</g>
</svg>
