<?xml version="1.0" standalone="no"?>
<!DOCTYPE svg PUBLIC "-//W3C//DTD SVG 20010904//EN"
 "http://www.w3.org/TR/2001/REC-SVG-20010904/DTD/svg10.dtd">
<svg version="1.0" xmlns="http://www.w3.org/2000/svg"
 width="700.000000pt" height="700.000000pt" viewBox="0 0 700.000000 700.000000"
 preserveAspectRatio="xMidYMid meet">
<metadata>
Created by potrace 1.11, written by Peter Selinger 2001-2013
</metadata>
<g transform="translate(0.000000,700.000000) scale(0.100000,-0.100000)"
fill="#000000" stroke="none">
<path d="M621 5159 c-43 -9 -78 -34 -98 -72 -16 -30 -17 -96 -18 -927 l0 -895
25 -33 c64 -86 180 -85 244 1 21 28 21 33 23 815 1 433 2 795 3 805 0 16 44
17 789 17 658 0 794 2 822 14 76 32 111 124 75 194 -18 35 -54 68 -86 78 -29
9 -1734 12 -1779 3z"/>
<path d="M2624 4270 c-23 -9 -90 -83 -92 -102 -7 -46 -5 -87 5 -114 6 -18 116
-135 273 -293 l263 -263 -262 -262 c-276 -276 -292 -298 -284 -374 8 -73 71
-137 144 -146 77 -9 95 5 436 346 318 318 363 371 363 429 0 76 -11 89 -355
434 -272 271 -341 336 -372 344 -45 13 -90 13 -119 1z"/>
<path d="M4233 4260 c-54 -32 -674 -659 -689 -696 -18 -42 -18 -86 0 -128 17
-40 650 -677 697 -702 70 -36 162 -9 207 59 21 32 27 51 26 94 -1 29 -8 63
-17 76 -8 13 -131 139 -272 280 l-256 257 261 262 c144 144 266 273 272 287
15 40 12 99 -7 140 -36 80 -149 116 -222 71z"/>
<path d="M6321 3829 c-44 -9 -82 -38 -103 -78 -15 -29 -16 -106 -17 -799 0
-422 0 -779 0 -794 l-1 -28 -792 0 c-735 0 -796 -1 -828 -18 -75 -37 -101
-127 -58 -203 43 -77 -15 -73 978 -73 868 0 887 0 920 20 19 11 43 35 55 54
20 34 20 49 21 920 1 842 0 887 -18 922 -29 60 -93 91 -157 77z"/>
</g>
</svg>
