<?xml version="1.0" standalone="no"?>
<!DOCTYPE svg PUBLIC "-//W3C//DTD SVG 20010904//EN"
 "http://www.w3.org/TR/2001/REC-SVG-20010904/DTD/svg10.dtd">
<svg version="1.0" xmlns="http://www.w3.org/2000/svg"
 width="982.000000pt" height="982.000000pt" viewBox="0 0 982.000000 982.000000"
 preserveAspectRatio="xMidYMid meet">
<metadata>
Created by potrace 1.11, written by Peter Selinger 2001-2013
</metadata>
<g transform="translate(0.000000,982.000000) scale(0.100000,-0.100000)"
fill="#000000" stroke="none">
<path d="M3797 8382 c-22 -25 -25 -457 -3 -487 14 -19 27 -20 386 -20 292 0
376 3 391 13 18 12 19 29 19 247 0 199 -2 236 -16 249 -13 14 -63 16 -388 16
-343 0 -374 -1 -389 -18z"/>
<path d="M5266 8387 c-17 -13 -19 -33 -19 -236 0 -194 2 -224 16 -238 15 -15
55 -17 384 -18 316 0 369 2 386 15 17 15 19 32 19 239 1 206 -1 225 -17 238
-27 19 -743 19 -769 0z"/>
<path d="M3379 8373 c-21 -26 -19 -470 2 -484 15 -9 27 -10 129 -10 194 -1
189 -2 197 29 13 51 7 450 -7 467 -10 12 -40 15 -160 15 -128 0 -149 -2 -161
-17z"/>
<path d="M6140 8380 c-21 -13 -24 -445 -2 -466 18 -19 302 -20 320 -2 15 15
17 430 2 459 -10 17 -23 19 -158 19 -81 0 -154 -5 -162 -10z"/>
<path d="M5288 7812 c-50 -6 -51 -11 -51 -337 0 -268 2 -307 16 -323 14 -16
34 -18 168 -17 133 0 152 2 164 18 18 24 19 618 1 641 -8 12 -40 16 -141 18
-71 2 -142 2 -157 0z"/>
<path d="M5673 7794 c-21 -21 -22 -27 -22 -320 0 -250 2 -302 15 -319 14 -19
27 -20 393 -20 345 0 381 2 398 17 18 17 19 35 19 322 -1 276 -3 307 -18 323
-16 15 -51 17 -390 18 -368 0 -373 0 -395 -21z"/>
<path d="M3405 7792 c-43 -8 -45 -21 -45 -337 0 -244 3 -305 14 -321 14 -18
30 -19 393 -20 368 0 378 0 398 20 19 20 20 33 19 324 0 267 -2 305 -17 319
-15 15 -56 17 -379 17 -200 1 -372 0 -383 -2z"/>
<path d="M4328 7792 c-42 -2 -71 -8 -78 -17 -9 -10 -12 -101 -12 -321 -1 -297
0 -308 19 -324 17 -13 45 -16 168 -15 132 0 148 3 161 19 18 26 18 616 0 641
-13 18 -108 24 -258 17z"/>
<path d="M5258 7040 c-21 -17 -21 -22 -21 -325 l0 -308 22 -19 c22 -17 49 -18
391 -18 339 0 370 1 390 18 22 18 22 20 22 327 0 304 0 309 -21 326 -20 16
-55 18 -392 17 -335 0 -371 -2 -391 -18z"/>
<path d="M6136 7047 c-17 -13 -19 -35 -19 -326 0 -277 2 -314 16 -329 14 -14
40 -16 168 -16 134 0 153 3 165 18 20 28 18 631 -3 651 -20 21 -300 22 -327 2z"/>
<path d="M3370 7025 c-10 -12 -13 -89 -14 -321 0 -273 2 -306 17 -321 14 -15
39 -17 167 -17 104 1 155 5 163 13 9 9 12 94 14 319 1 267 -1 309 -14 325 -14
15 -36 17 -168 17 -125 0 -155 -3 -165 -15z"/>
<path d="M3792 7016 c-17 -23 -18 -45 -18 -319 1 -269 3 -297 19 -315 17 -19
31 -20 393 -19 286 0 378 3 392 13 15 11 17 41 19 317 1 241 -1 309 -12 324
-13 17 -38 18 -394 20 l-380 2 -19 -23z"/>
<path d="M8131 6308 c-10 -3 -22 -12 -26 -18 -4 -6 -7 -159 -7 -341 0 -301 2
-332 18 -350 16 -18 34 -19 348 -19 247 1 335 4 346 13 8 7 36 35 62 64 l47
52 0 273 c0 150 -3 283 -6 295 -3 12 -15 26 -26 30 -28 9 -731 11 -756 1z"/>
<path d="M9004 6303 c-11 -12 -14 -57 -14 -238 0 -192 2 -226 16 -240 21 -20
22 -20 229 149 88 72 190 155 228 184 37 30 67 57 68 61 7 45 6 82 -4 88 -7 5
-124 9 -260 9 -204 1 -251 -1 -263 -13z"/>
<path d="M314 6295 c-11 -7 -14 -24 -12 -50 3 -37 10 -45 143 -153 77 -63 185
-151 240 -196 125 -103 121 -100 142 -79 17 17 18 39 18 245 0 125 -4 230 -9
235 -13 13 -504 11 -522 -2z"/>
<path d="M951 6298 c-11 -4 -22 -12 -26 -18 -5 -9 -10 -504 -6 -578 1 -7 28
-40 61 -73 l60 -59 328 0 c272 0 331 2 349 15 20 14 21 21 21 337 0 178 -2
333 -5 345 -3 12 -15 26 -26 30 -28 9 -731 11 -756 1z"/>
<path d="M7554 5988 c-179 -178 -330 -331 -335 -340 -7 -13 -4 -23 9 -36 18
-18 39 -19 393 -18 206 1 382 6 392 10 16 8 17 34 17 338 0 208 -4 336 -10
349 -9 16 -22 19 -76 19 l-64 0 -326 -322z"/>
<path d="M1815 6279 c-13 -40 -9 -669 4 -682 9 -9 115 -12 393 -12 397 -1 408
1 408 41 0 8 -150 163 -332 344 l-333 330 -67 0 c-59 0 -67 -2 -73 -21z"/>
<path d="M5255 6276 c-17 -12 -19 -35 -19 -331 -1 -246 2 -322 12 -336 12 -17
28 -19 166 -19 133 0 155 2 169 18 13 15 15 60 15 327 1 252 -2 314 -14 332
-13 21 -20 22 -162 22 -109 0 -154 -3 -167 -13z"/>
<path d="M5674 6265 c-20 -21 -21 -29 -21 -329 0 -275 2 -310 17 -329 17 -20
24 -21 391 -21 372 -1 374 -1 396 21 22 21 23 25 22 320 0 164 -2 308 -5 320
-3 12 -13 25 -22 29 -10 4 -183 8 -387 9 -364 1 -370 1 -391 -20z"/>
<path d="M3387 6255 c-11 -5 -23 -21 -27 -35 -11 -48 -4 -604 8 -626 6 -12 22
-23 34 -26 20 -3 691 -3 740 1 37 2 41 35 41 354 0 274 -2 311 -17 325 -15 15
-56 17 -387 17 -239 1 -378 -3 -392 -10z"/>
<path d="M4255 6253 c-18 -17 -17 10 -17 -355 -1 -227 2 -301 12 -313 10 -12
40 -15 164 -15 83 0 158 5 166 10 13 8 15 58 18 331 2 281 1 324 -13 339 -14
15 -36 17 -166 18 -118 0 -153 -3 -164 -15z"/>
<path d="M2598 5452 c-14 -2 -32 -10 -38 -17 -9 -11 -12 -105 -12 -342 0 -293
2 -328 17 -339 12 -9 152 -12 568 -12 484 0 554 2 570 16 15 14 17 43 17 336
0 181 -4 327 -10 336 -7 12 -40 15 -164 16 -137 2 -157 0 -171 -16 -13 -15
-16 -52 -15 -260 l0 -242 -48 38 c-26 21 -74 61 -108 89 -33 27 -80 66 -104
85 -54 44 -228 186 -255 208 -101 86 -135 106 -177 106 -24 1 -55 0 -70 -2z"/>
<path d="M2135 5425 c-19 -19 -20 -33 -19 -333 0 -278 2 -314 17 -329 25 -25
304 -26 328 -2 16 16 17 50 17 333 0 234 -3 319 -12 332 -11 14 -34 17 -162
18 -137 1 -151 -1 -169 -19z"/>
<path d="M3795 5434 c-19 -14 -20 -27 -21 -331 -1 -294 1 -318 18 -335 17 -17
43 -18 393 -18 362 0 376 1 395 20 19 19 20 33 20 330 0 297 -1 311 -20 330
-19 19 -33 20 -392 20 -317 -1 -376 -3 -393 -16z"/>
<path d="M5272 5439 c-11 -4 -23 -13 -28 -20 -4 -7 -8 -148 -9 -313 -1 -305 4
-354 38 -357 6 -1 178 -2 380 -3 341 -1 370 0 388 17 22 21 21 -5 21 361 0
253 -2 290 -16 305 -15 14 -59 16 -385 17 -203 0 -378 -3 -389 -7z"/>
<path d="M6151 5438 c-16 -5 -31 -16 -33 -25 -2 -10 -4 -158 -3 -329 0 -245 3
-315 14 -327 12 -15 69 -17 574 -16 509 1 562 3 574 17 16 22 19 643 3 673 -9
16 -22 19 -86 19 l-75 0 -127 -102 c-70 -57 -136 -111 -147 -120 -11 -9 -74
-60 -140 -114 -66 -54 -122 -101 -125 -104 -3 -3 -26 -22 -52 -43 -40 -32 -48
-35 -49 -20 -1 10 -2 117 -3 238 -2 121 -4 225 -4 232 -1 6 -12 15 -24 19 -30
10 -260 11 -297 2z"/>
<path d="M1218 5423 c-24 -29 8 -65 196 -224 16 -13 36 -31 45 -40 9 -9 72
-65 141 -124 69 -60 127 -112 130 -115 3 -3 38 -34 79 -69 72 -64 74 -65 137
-67 46 -2 68 1 79 12 22 22 23 605 0 627 -21 21 -789 21 -807 0z"/>
<path d="M7370 5425 c-10 -12 -13 -87 -12 -313 0 -349 0 -333 12 -352 13 -21
294 -25 328 -4 l22 14 0 320 c0 276 -2 321 -16 334 -23 23 -315 24 -334 1z"/>
<path d="M7809 5414 c-10 -12 -13 -83 -13 -312 -1 -347 -5 -333 93 -328 35 2
68 9 78 17 10 9 74 65 143 125 69 60 202 177 295 259 94 82 182 160 198 174
29 26 34 50 15 69 -9 9 -112 12 -404 12 -345 0 -393 -2 -405 -16z"/>
<path d="M5250 4615 c-10 -12 -13 -90 -13 -331 0 -266 2 -317 15 -330 11 -11
43 -15 139 -15 171 -1 176 -1 193 16 21 22 21 639 -1 661 -22 21 -315 21 -333
-1z"/>
<path d="M5665 4610 c-17 -19 -18 -45 -18 -332 0 -303 0 -312 21 -328 18 -15
67 -17 541 -15 476 1 523 3 538 18 16 15 17 49 17 331 0 243 -3 318 -13 330
-12 14 -74 16 -541 16 -515 0 -527 0 -545 -20z"/>
<path d="M6851 4618 c-10 -3 -21 -13 -24 -22 -4 -9 -6 -153 -6 -320 0 -254 2
-307 14 -320 22 -22 888 -22 910 0 20 21 19 35 -8 75 -140 207 -187 278 -187
285 1 5 62 59 136 119 74 61 140 118 145 128 12 22 -5 57 -29 58 -80 5 -937 2
-951 -3z"/>
<path d="M2017 4589 c-34 -27 -14 -58 91 -141 53 -43 117 -95 140 -115 l44
-38 -79 -114 c-148 -214 -146 -212 -127 -240 15 -21 16 -21 458 -21 399 0 445
2 457 16 11 13 14 79 14 313 0 163 -1 306 -3 318 -2 12 -14 25 -26 29 -11 4
-230 8 -485 8 -410 1 -467 -1 -484 -15z"/>
<path d="M3090 4600 c-21 -13 -26 -638 -5 -666 12 -17 41 -19 531 -20 506 -1
547 1 566 30 4 6 8 149 8 319 0 294 -1 308 -20 327 -19 19 -33 20 -542 20
-312 0 -529 -4 -538 -10z"/>
<path d="M4249 4594 c-20 -24 -17 -640 3 -660 13 -13 135 -19 290 -15 58 2 58
3 58 346 0 272 -2 316 -16 329 -23 23 -315 24 -335 0z"/>
<path d="M3928 3792 c-102 -2 -129 -6 -140 -19 -10 -13 -13 -82 -14 -325 -1
-278 1 -312 16 -331 17 -21 23 -21 391 -22 343 0 374 1 395 18 23 18 23 18 24
326 0 281 -1 310 -17 330 -17 20 -26 21 -273 24 -140 1 -312 1 -382 -1z"/>
<path d="M5259 3781 c-22 -17 -22 -22 -22 -330 0 -281 1 -314 17 -329 15 -15
52 -17 392 -18 333 -1 378 1 396 16 19 15 20 28 20 330 0 312 0 314 -22 332
-20 16 -51 18 -391 17 -336 0 -371 -2 -390 -18z"/>
<path d="M6134 3783 c-14 -14 -18 -640 -4 -662 6 -10 42 -14 139 -15 72 -1
140 2 151 6 19 7 20 17 20 194 l0 188 48 -51 c26 -28 99 -106 162 -173 63 -68
123 -132 133 -143 17 -20 29 -21 318 -22 198 0 306 3 316 10 12 9 14 63 14
334 0 222 -3 327 -11 335 -17 17 -1269 16 -1286 -1z"/>
<path d="M1920 3770 c-10 -8 -70 -78 -135 -155 -65 -77 -127 -151 -139 -165
-240 -280 -250 -296 -205 -336 19 -17 43 -18 433 -17 423 1 449 3 458 40 3 10
4 152 4 315 -1 268 -3 299 -18 315 -16 15 -41 17 -199 18 -150 1 -185 -2 -199
-15z"/>
<path d="M2412 3773 c-13 -26 -10 -649 4 -663 7 -7 112 -10 312 -10 301 0 303
0 325 22 13 13 59 61 103 108 156 168 222 238 231 243 5 3 9 -69 8 -174 0
-122 3 -183 11 -190 6 -5 73 -9 150 -10 109 0 140 3 149 14 12 16 13 645 1
665 -5 9 -151 12 -646 12 -599 0 -640 -1 -648 -17z"/>
<path d="M7520 3770 c-19 -19 -20 -33 -20 -324 0 -264 2 -307 16 -320 8 -9 18
-17 22 -17 4 -1 195 -2 424 -3 416 -2 418 -2 438 19 12 12 19 31 17 44 -3 17
-257 331 -352 435 -5 6 -43 50 -84 99 l-73 87 -184 0 c-171 0 -185 -1 -204
-20z"/>
<path d="M6978 2979 c-26 -15 -22 -54 10 -87 41 -42 250 -267 270 -289 9 -11
74 -80 143 -154 70 -74 135 -145 146 -158 19 -23 23 -23 185 -24 124 -1 170 2
182 12 14 12 16 55 16 352 0 324 -1 339 -19 349 -27 14 -909 13 -933 -1z"/>
<path d="M8034 2969 c-17 -19 -19 -42 -19 -332 l-1 -312 26 -25 25 -26 482 1
c458 0 482 1 502 19 12 11 21 31 21 48 0 27 -13 45 -110 148 -14 15 -45 49
-70 76 -25 27 -77 83 -115 124 -39 42 -117 126 -174 188 l-103 112 -223 0
c-212 0 -223 -1 -241 -21z"/>
<path d="M5747 2972 c-89 -5 -86 6 -85 -351 1 -367 -10 -341 136 -341 429 -2
641 0 655 5 8 4 20 19 24 33 5 15 9 161 8 325 0 283 -2 300 -20 313 -10 8 -35
14 -54 15 -137 3 -617 3 -664 1z"/>
<path d="M1301 2933 c-20 -21 -68 -72 -107 -113 -38 -41 -118 -129 -179 -194
-60 -66 -114 -124 -120 -130 -5 -6 -38 -42 -72 -79 -69 -75 -79 -109 -42 -143
20 -18 45 -19 497 -19 263 -1 484 1 493 3 8 2 22 15 31 30 12 23 14 78 14 334
-1 285 -3 308 -20 327 -18 20 -29 21 -238 21 l-220 0 -37 -37z"/>
<path d="M1918 2953 c-13 -15 -16 -65 -16 -345 0 -247 3 -331 13 -344 11 -15
33 -18 180 -17 l168 0 61 65 c171 183 267 286 291 313 15 17 60 64 99 105 162
172 168 179 160 203 -4 12 -12 25 -18 29 -6 4 -216 8 -467 8 -422 0 -457 -1
-471 -17z"/>
<path d="M3396 2957 c-13 -4 -27 -16 -31 -25 -3 -9 -6 -156 -6 -327 l0 -310
23 -20 c22 -19 37 -20 400 -19 347 1 379 2 397 18 19 17 20 31 18 337 -2 289
-4 320 -20 336 -16 16 -48 18 -387 18 -203 0 -380 -3 -394 -8z"/>
<path d="M4259 2952 c-18 -12 -19 -28 -19 -337 0 -372 -4 -354 88 -356 191 -3
255 1 268 19 20 25 19 641 0 668 -12 16 -31 18 -165 19 -113 1 -157 -3 -172
-13z"/>
<path d="M5266 2948 c-22 -34 -18 -654 4 -668 8 -5 83 -10 167 -10 119 0 155
3 166 14 21 22 22 630 1 664 -14 21 -20 22 -169 22 -149 0 -155 -1 -169 -22z"/>
<path d="M7782 2118 c-34 -9 -52 -34 -52 -71 0 -22 41 -80 187 -260 102 -128
189 -234 192 -237 4 -3 18 -21 32 -40 41 -54 62 -76 84 -87 12 -6 132 -10 312
-9 288 1 293 1 315 23 22 22 22 26 23 320 1 318 -2 344 -47 359 -30 10 -1010
11 -1046 2z"/>
<path d="M8942 2114 c-14 -10 -16 -56 -16 -339 -1 -245 2 -332 11 -345 12 -17
43 -18 430 -18 248 0 424 3 435 9 24 13 23 39 -4 69 -19 21 -138 159 -224 260
-23 27 -77 89 -160 186 -28 32 -76 88 -106 123 l-55 65 -148 0 c-95 1 -154 -3
-163 -10z"/>
<path d="M560 2107 c-8 -7 -33 -34 -54 -61 -22 -26 -49 -58 -60 -70 -18 -18
-66 -74 -176 -202 -22 -26 -111 -129 -165 -192 -11 -13 -37 -42 -57 -65 -45
-50 -54 -73 -38 -92 11 -13 79 -15 441 -15 413 0 429 1 439 19 15 29 14 663
-2 679 -17 17 -307 16 -328 -1z"/>
<path d="M975 2095 l-25 -24 0 -306 0 -306 25 -24 24 -25 293 0 c244 0 297 3
315 15 12 8 77 84 144 167 68 84 162 200 210 258 121 146 140 177 133 209 -3
14 -15 34 -26 44 -19 16 -59 17 -545 17 l-524 0 -24 -25z"/>
<path d="M3376 2104 c-9 -8 -16 -30 -17 -47 0 -18 0 -162 -1 -321 0 -252 2
-290 16 -304 25 -25 299 -25 326 0 17 16 18 38 18 330 0 256 -2 317 -14 336
-14 21 -20 22 -164 22 -122 0 -151 -3 -164 -16z"/>
<path d="M3803 2109 c-12 -4 -26 -16 -31 -26 -5 -10 -9 -158 -8 -330 1 -300 2
-313 21 -327 17 -13 76 -15 393 -16 359 0 373 1 392 20 19 19 20 33 20 333 -1
262 -3 315 -16 332 -14 19 -27 20 -382 21 -202 1 -377 -3 -389 -7z"/>
<path d="M5269 2101 l-23 -19 0 -317 c0 -314 0 -318 22 -335 20 -16 54 -18
391 -18 334 -1 372 1 391 16 21 17 21 25 22 336 l1 319 -23 19 c-21 17 -48 18
-390 18 -345 0 -369 -1 -391 -19z"/>
<path d="M6130 2105 c-10 -12 -13 -90 -14 -332 -1 -280 1 -319 16 -338 15 -19
25 -21 166 -20 109 0 154 4 166 14 14 12 16 50 15 335 -1 277 -3 323 -16 339
-14 15 -36 17 -168 17 -126 0 -155 -3 -165 -15z"/>
</g>
</svg>
