<svg version="1" xmlns="http://www.w3.org/2000/svg" width="933.333" height="933.333" viewBox="0 0 700.000000 700.000000"><path d="M329.8.5c-.2.1-4.1.5-8.8.9-10 .7-22.5 2.2-29.5 3.6-2.7.5-6.1 1.2-7.5 1.4-59.6 10.9-120.6 40.9-166 81.7-12.6 11.4-17.8 16.6-33.1 33.5-10.7 11.8-28.6 37-38.6 54.5-15.8 27.4-30.9 65.6-36.9 93.2-2 9-5.3 27.2-5.9 32.2-.4 3.3-.9 6.9-1.1 8-1.8 9.8-2.5 57.2-1.1 71.5 1.2 10.9 2.7 22.6 4.1 29.5.2 1.1.6 3.6 1 5.5 4.9 27.2 15.6 59.5 28.3 85.7 41.5 85.8 116.6 151.7 205.8 180.6 9.3 3 16.3 5.1 21 6.3 4.8 1.2 15.4 3.7 17 4 10.1 2 18.6 3.5 23.8 4 3.4.3 6.5.8 6.8.9 1.5 1 22.7 2 40.9 2 18.8 0 34.1-.8 43-2.1 14.4-2.1 29.5-4.8 34.5-6.1 3.3-.8 6.7-1.6 7.5-1.8 10.9-2.2 38.8-11.7 55-18.8 11.9-5.1 30.5-14.6 35.2-17.8 1.4-1.1 2.9-1.9 3.3-1.9 1.3 0 26.9-17.5 36.2-24.8 18-14 34.4-29.4 47.6-44.7 3.3-3.9 6.3-7.2 6.7-7.5.3-.3 4.4-5.5 9-11.5 33.2-43.7 54.7-91.5 65.4-145.6 1.4-7 2.8-15.5 3.2-19 .3-3.5.8-6.7 1-7 .9-1.7 1.9-21.4 1.8-39.9 0-18.4-.5-30.7-1.8-41-.2-1.9-.7-5.8-1-8.6-.4-2.8-.8-5.9-1-7-.2-1-1.1-6-2.1-10.9-20-107.3-92.4-201-192.2-249.1-26.6-12.8-62.1-24.3-89-28.8-4.8-.8-23.5-3.5-29.3-4.1-5.6-.7-52.6-1.6-53.2-1zM366 19.4c7.4.3 15.1.8 17 1.1 16.7 2.7 23.9 4 32.5 6.2 82 20.4 142.5 78.4 164.1 157.3 1.9 6.9 3.6 13.8 3.8 15.5.2 1.6.9 5.9 1.5 9.5 2 12.1 2.1 14.5 2.6 32.5.5 22.1-.4 30-6 54-2.9 12.5-12.9 40.2-20.8 58-7.6 16.9-31.7 63.9-35.8 69.7-1.1 1.4-1.9 2.8-1.9 3.1 0 .8-17 29.1-27.2 45.4-25.5 40.4-70.6 104.7-95.5 136.3-.6.8-6.7 8.7-13.4 17.5s-15.3 19.8-19.1 24.5c-3.8 4.7-7.4 9.2-8.1 10-.7.8-3.2 3.9-5.6 6.8l-4.4 5.3-1.5-2.3c-.9-1.3-1.9-2.5-2.2-2.8-.8-.6-29.4-36.7-38.1-48-46.6-60.9-84.2-113.4-111.3-155.7-3.8-6-8.4-13.1-10.1-15.8-4.8-7.4-22.7-37.2-26.2-43.5-1.7-3-6.3-11.4-10.3-18.5-26.2-47-42.9-90.7-46.6-122-.5-4.3-.5-28.4.1-32 .2-1.7.7-5.5 1-8.5 1.2-9.6 1.4-11.1 3.5-19.9 1.8-7.5 5-18.6 6.7-23.1.3-.8.7-2 .9-2.5.1-.6 1.8-4.6 3.7-9 12.3-28.7 27.6-51.2 49.6-73.5 25.7-26 48.8-41.8 82.6-56.5 12.6-5.5 36.4-12.7 49-15 14.5-2.5 20.7-3.3 33.5-4.1 5.8-.4 10.6-.8 10.8-.9.1-.1 1.9-.1 4 .1 2 .1 9.8.5 17.2.8z"/><path d="M329 130.2c-19.6 3.5-24.5 4.9-38.4 11-38.3 16.8-68.9 56.6-74.2 96.3-.3 2.7-.8 5.3-1 5.7-.7 1-.6 26.8 0 29.8.3 1.3.8 4.2 1.1 6.5 2.8 18.9 12.9 41.7 26.1 58.1 10.2 12.9 28.8 28.1 42.9 35.1 10.5 5.3 27.4 10.9 35.5 12 2.5.3 6.5.9 9 1.3 5.7 1 29.7.5 37-.8 47.1-8.5 85-39.9 101-83.7 2-5.4 5-16.5 5.6-20.5 3-20.9 2.4-34.8-2-55.2-1-4.3-5.4-16.2-8.4-22.6-2.6-5.5-10-18.2-11.1-19.2-.4-.3-1.9-2.3-3.6-4.5-10.2-13.9-30.3-29.9-47.5-37.9-7-3.2-19-7.7-19-7 0 .2-.8 0-1.7-.5-1-.5-3.1-1.1-4.8-1.4-1.6-.3-5.9-1.1-9.5-1.8-7.7-1.4-30.7-1.8-37-.7z"/></svg>