<?xml version="1.0" standalone="no"?>
<!DOCTYPE svg PUBLIC "-//W3C//DTD SVG 20010904//EN"
 "http://www.w3.org/TR/2001/REC-SVG-20010904/DTD/svg10.dtd">
<svg version="1.0" xmlns="http://www.w3.org/2000/svg"
 width="512.000000pt" height="512.000000pt" viewBox="0 0 512.000000 512.000000"
 preserveAspectRatio="xMidYMid meet">
<metadata>
Created by potrace 1.11, written by Peter Selinger 2001-2013
</metadata>
<g transform="translate(0.000000,512.000000) scale(0.100000,-0.100000)"
fill="#000000" stroke="none">
<path d="M0 4145 c0 -269 3 -345 13 -346 6 0 887 -2 1957 -3 1910 -3 1946 -4
2015 -23 210 -60 302 -169 310 -368 11 -236 -89 -371 -317 -432 -58 -15 -230
-17 -2003 -19 -1067 -2 -1948 -4 -1957 -4 -17 0 -18 -23 -18 -343 l0 -344
1913 0 c1051 0 1946 -3 1987 -7 287 -27 465 -194 474 -446 7 -183 -80 -342
-227 -417 -144 -73 -48 -70 -2211 -69 l-1936 1 0 -347 0 -347 2048 3 c1126 1
2056 5 2067 8 11 3 40 9 65 12 148 20 350 107 488 211 214 161 365 403 428
687 30 137 27 389 -6 518 -50 193 -197 410 -367 541 l-54 42 33 26 c84 64 181
180 236 281 82 150 125 384 100 545 -4 28 -10 66 -13 85 -20 126 -89 298 -165
410 -53 78 -166 198 -222 236 -24 16 -45 31 -48 35 -14 15 -134 81 -205 113
-91 39 -182 65 -295 82 -19 3 -46 8 -60 11 -14 4 -926 8 -2027 9 l-2003 3 0
-344z"/>
</g>
</svg>
