<svg xmlns="http://www.w3.org/2000/svg" data-name="Vrstva 1" viewBox="0 0 32 32"><path style="fill:#0a2472;stroke-width:0" d="M0 0h32v32H0z"/><path d="M5.42 15.98c0-3.01 1.22-5.73 3.19-7.7 1.97-1.97 4.69-3.19 7.7-3.19s5.73 1.22 7.7 3.19l-7.7 7.7H5.42Z" style="opacity:.2;fill:#fff;fill-rule:evenodd;stroke-width:0"/><path d="M24 23.67a10.852 10.852 0 0 1-7.7 3.19V15.98l7.7 7.7Z" style="opacity:.7;fill:#fff;fill-rule:evenodd;stroke-width:0"/><path d="M4 15.98c0 3.57 1.38 6.8 3.6 9.14 2.23 2.34 5.3 3.79 8.7 3.79V15.98H4Z" style="opacity:.45;fill:#fff;fill-rule:evenodd;stroke-width:0"/><path d="M16.38 24.58c3.03 0 5.91-1.48 7.53-4.19l-2.46-1.77c-1.39 1.94-3.01 2.88-5.07 2.88-3.05 0-5.27-2.27-5.27-5.52s2.13-5.52 5.18-5.52c2.14 0 3.75 1.12 4.87 2.96l2.63-1.87c-1.64-2.61-4.41-4.18-7.5-4.18-4.9 0-8.59 3.72-8.59 8.6s3.8 8.6 8.68 8.6Z" style="fill:#fff;fill-rule:evenodd;stroke-width:0"/></svg>