<svg
   width="48"
   height="48"
   viewBox="0 0 47.999998 47.999999"
   fill="none"
   version="1.1"
   id="svg3"
   xmlns="http://www.w3.org/2000/svg"
   xmlns:svg="http://www.w3.org/2000/svg">
  <g
     id="g3"
     transform="translate(6.2307805,4.69245)">
    <path
       d="M 15.5385,7.69231 C 15.5385,12 12,15.3846 7.84615,15.3846 3.53845,15.3846 0.153839,11.8462 0.153839,7.69231 0.153839,3.38462 3.6923,0 7.84615,0 12,0 15.5385,3.53846 15.5385,7.69231 Z"
       fill="#ce0058"
       id="path1" />
    <path
       d="m 15.5385,30.9228 c 0,4.3077 -3.5385,7.6923 -7.69235,7.6923 -4.3077,0 -7.692311,-3.5385 -7.692311,-7.6923 0,-4.3077 3.538461,-7.6923 7.692311,-7.6923 4.15385,0 7.69235,3.5384 7.69235,7.6923 z"
       fill="#ce0058"
       id="path2" />
    <path
       d="m 30.7692,20.6145 c -0.4615,1.0769 -1.5384,1.8461 -2.7692,1.8461 -1.6923,0 -3.0769,-1.3846 -3.0769,-3.0769 0,-1.6923 1.3846,-3.0769 3.0769,-3.0769 1.3846,0 2.4616,0.9231 2.9231,2.1538 L 35.3846,17.076 C 34.4616,13.9991 31.5385,11.6914 28,11.6914 c -4.3077,0 -7.6923,3.5385 -7.6923,7.6923 0,4.3077 3.5385,7.6923 7.6923,7.6923 3.0769,0 5.6923,-1.6923 6.9231,-4.3077 z"
       fill="#00163d"
       id="path3" />
  </g>
</svg>
