<?xml version="1.0" encoding="UTF-8" standalone="yes"?>
<!DOCTYPE svg PUBLIC "-//W3C//DTD SVG 1.1//EN" "http://www.w3.org/Graphics/SVG/1.1/DTD/svg11.dtd">

<svg width="525" height="525" viewBox="0 0 525 525" xmlns="http://www.w3.org/2000/svg" xmlns:xlink="http://www.w3.org/1999/xlink" version="1.1" baseProfile="full">
    <g transform="scale(1,-1) translate(0,-525)">
        <path d="M 277.530762 194.500000 C 277.530762 301.342391 215.732285 387.955261 139.500000 387.955261 C 63.267715 387.955261 1.469238 301.342391 1.469238 194.500000 C 1.469238 87.657609 63.267715 1.044739 139.500000 1.044739 C 215.732285 1.044739 277.530762 87.657609 277.530762 194.500000 Z" transform="scale(1.000000,1.000000) translate(123.000000,68.000000)" fill="#fffefe" opacity="1.000000"></path>
        <path d="M 214.500000 1.494825 Q 159.117983 1.494825 118.777996 20.639226 Q 78.438009 39.783627 52.456322 73.628193 Q 26.474635 107.472758 13.825656 153.624439 Q 1.176677 199.776119 1.176677 254.474407 Q 1.176677 309.172695 13.825656 356.008104 Q 26.474635 402.843513 52.456322 437.029943 Q 78.438009 471.216373 118.777996 490.360774 Q 159.117983 509.505175 214.500000 509.505175 Q 269.882017 509.505175 310.222004 490.360774 Q 350.561991 471.216373 376.543678 437.029943 Q 402.525365 402.843513 415.174344 356.008104 Q 427.823323 309.172695 427.823323 254.474407 Q 427.823323 199.776119 415.174344 153.624439 Q 402.525365 107.472758 376.543678 73.628193 Q 350.561991 39.783627 310.222004 20.639226 Q 269.882017 1.494825 214.500000 1.494825 Z M 214.500000 84.909714 Q 320.477933 84.909714 320.477933 254.474407 Q 320.477933 339.256753 294.838110 381.647927 Q 269.198288 424.039100 215.183729 424.039100 Q 107.838338 424.039100 107.838338 254.474407 Q 107.838338 84.909714 214.500000 84.909714 Z" transform="scale(1.000000,1.000000) translate(48.000000,7.000000)" fill="#fb520d" opacity="1.000000"></path>
    </g>
</svg>