<svg version="1" xmlns="http://www.w3.org/2000/svg" width="400" height="400" viewBox="0 0 300.000000 300.000000"><path d="M142.8 17.5c-.2.2-3.9.5-8.3.9-22.3 1.7-45 12.5-60.4 28.6C64.3 57.2 54 74.9 49 90c-2.9 8.8-6.8 27.6-7.7 36.9-1.4 14.5-.7 48.7 1.3 58.3.2 1.3.7 3.6 1 5.3 1.2 7.1 5.9 23.5 8.6 30 15.2 36.8 43.6 59.1 80.8 63.1 18.4 2 37.6.6 51.9-3.8 25.6-7.9 46-25.5 58.6-50.8 6.3-12.5 12.3-34.7 14.2-52.5 1.5-13.7.7-56.5-1.2-59.4-.2-.4-.6-3-1-6-.8-6.2-5.2-22-8.4-29.9-10.4-26-29.7-46.1-53.4-55.8-7.3-2.9-19-6-26.7-6.9-5.5-.7-23.7-1.4-24.2-1zm24.3 35c24.3 6.2 40.1 25.1 47.5 57 3.2 13.9 4.1 24.8 3.9 44.5-.2 10.7-.5 20.4-.8 21.5-.3 1.1-.8 4.2-1.1 7-3.1 23.2-14.2 45.8-27.5 56.4-18.1 14.2-46.5 16.9-68.5 6.3-22.5-10.8-35.4-35.2-39.5-74.7-1.3-12.7-.4-43.2 1.4-50.5.2-.8.7-3.4 1-5.7.9-6.3 5.2-20 8.5-27 9-19.3 23.7-31.4 42.8-35.3 10.3-2 23-1.9 32.3.5z"/></svg>