<?xml version="1.0" standalone="no"?>
<!DOCTYPE svg PUBLIC "-//W3C//DTD SVG 20010904//EN"
 "http://www.w3.org/TR/2001/REC-SVG-20010904/DTD/svg10.dtd">
<svg version="1.0" xmlns="http://www.w3.org/2000/svg"
 width="512.000000pt" height="512.000000pt" viewBox="0 0 512.000000 512.000000"
 preserveAspectRatio="xMidYMid meet">
<metadata>
Created by potrace 1.11, written by Peter Selinger 2001-2013
</metadata>
<g transform="translate(0.000000,512.000000) scale(0.100000,-0.100000)"
fill="#000000" stroke="none">
<path d="M1140 4139 c-78 -9 -134 -52 -154 -116 -4 -13 -8 -149 -8 -304 l0
-280 28 -46 c52 -84 55 -84 408 -82 l308 2 218 -218 c199 -199 217 -220 211
-244 -4 -14 -7 -72 -7 -128 l1 -103 -167 0 -168 0 0 109 c0 116 -8 152 -43
189 -50 54 -60 56 -367 57 -277 1 -286 0 -331 -22 -30 -16 -53 -36 -68 -63
-22 -40 -23 -48 -23 -323 0 -302 3 -324 52 -376 37 -38 77 -49 180 -47 52 1
102 -1 110 -5 12 -6 15 -33 13 -161 0 -84 -2 -156 -2 -160 -1 -5 -49 -8 -108
-8 -155 -1 -217 -34 -238 -129 -12 -56 -8 -562 5 -596 16 -42 57 -82 97 -96
22 -7 134 -11 312 -11 299 0 321 3 368 55 39 43 44 81 43 367 -1 256 -2 278
-21 318 -14 28 -35 51 -63 67 -39 23 -53 25 -157 25 l-115 0 0 165 c1 105 4
165 11 165 5 0 60 2 122 3 108 2 113 3 150 33 61 49 73 82 73 210 l0 111 165
0 c145 0 165 -2 166 -16 0 -9 2 -61 3 -116 3 -129 22 -169 101 -207 24 -12 84
-15 312 -16 264 0 285 1 323 21 24 11 53 37 68 60 l27 41 -1 290 c-1 331 -4
346 -75 393 l-42 27 -281 1 c-154 1 -293 -2 -307 -6 -24 -6 -45 12 -246 215
l-220 221 5 130 4 130 164 0 c90 0 164 -2 164 -5 1 -3 2 -57 4 -121 3 -137 19
-174 90 -209 41 -19 58 -21 331 -20 311 1 315 2 367 57 34 35 45 85 43 193 -1
47 2 90 6 95 6 8 278 13 322 6 4 0 7 -52 7 -113 0 -99 3 -118 23 -153 13 -22
40 -49 62 -62 39 -22 48 -23 328 -23 267 0 291 1 327 20 42 22 75 61 86 105 9
37 10 529 0 577 -4 21 -18 51 -33 68 -51 61 -58 62 -374 62 l-288 1 -46 -28
c-68 -39 -85 -82 -85 -217 l0 -108 -32 -1 c-110 -1 -292 2 -296 5 -2 3 -5 56
-6 120 -3 103 -5 119 -27 150 -13 19 -41 45 -62 57 -37 21 -50 21 -317 21
-304 0 -328 -3 -377 -55 -40 -41 -50 -81 -49 -195 1 -52 -3 -96 -8 -99 -8 -5
-57 -6 -273 -4 l-53 1 0 110 c0 91 -4 118 -20 149 -24 48 -61 78 -105 87 -43
8 -486 11 -545 3z"/>
</g>
</svg>
