<?xml version="1.0" standalone="no"?>
<!DOCTYPE svg PUBLIC "-//W3C//DTD SVG 20010904//EN"
 "http://www.w3.org/TR/2001/REC-SVG-20010904/DTD/svg10.dtd">
<svg version="1.0" xmlns="http://www.w3.org/2000/svg"
 width="260.000000pt" height="260.000000pt" viewBox="0 0 260.000000 260.000000"
 preserveAspectRatio="xMidYMid meet">
<metadata>
Created by potrace 1.11, written by Peter Selinger 2001-2013
</metadata>
<g transform="translate(0.000000,260.000000) scale(0.100000,-0.100000)"
fill="#000000" stroke="none">
<path d="M80 2589 c-14 -6 -36 -24 -50 -42 l-25 -31 0 -1216 0 -1216 25 -31
c14 -16 39 -35 56 -42 22 -8 356 -11 1217 -11 1301 0 1226 -3 1272 58 20 27
20 43 20 1242 0 1156 -1 1216 -18 1242 -42 61 31 58 -1279 57 -754 0 -1202 -4
-1218 -10z"/>
</g>
</svg>
