<?xml version="1.0" encoding="UTF-8"?>
<svg xmlns="http://www.w3.org/2000/svg" width="180" height="180" viewBox="0 0 180 180">
  <g transform="translate(-1756 550)">
    <rect width="180" height="180" transform="translate(1756 -550)" fill="none"></rect>
    <g transform="translate(-608.859 -438.702)">
      <path d="M182.39,27.929,145.844,3.56a21.147,21.147,0,0,0-23.485,0L76.387,34.209v55.8a21.17,21.17,0,0,0,21.17,21.17h73.105a21.169,21.169,0,0,0,21.17-21.17V45.551a21.173,21.173,0,0,0-9.428-17.623Z" transform="translate(2349.346 -94)" fill="#3388f4"></path>
      <path d="M94.276,45.284H21.17A21.17,21.17,0,0,0,0,66.454v44.456a21.172,21.172,0,0,0,9.428,17.623L45.972,152.9a21.145,21.145,0,0,0,23.485,0l45.972-30.648v-55.8a21.169,21.169,0,0,0-21.17-21.17Z" transform="translate(2368 -105.059)" fill="#3388f4"></path>
      <path d="M94.276,45.284H21.17A21.17,21.17,0,0,0,0,66.454v44.456a21.172,21.172,0,0,0,9.428,17.623L45.972,152.9a21.145,21.145,0,0,0,23.485,0l45.972-30.648v-55.8a21.169,21.169,0,0,0-21.17-21.17Z" transform="translate(2368 -105.059)" fill="#142575"></path>
      <path d="M112.931,45.284H76.386v55.8a21.17,21.17,0,0,0,21.17,21.17H134.1v-55.8a21.169,21.169,0,0,0-21.17-21.17" transform="translate(2349.345 -105.059)" fill="#9ff7da"></path>
    </g>
  </g>
</svg>
