<?xml version="1.0" standalone="no"?>
<!DOCTYPE svg PUBLIC "-//W3C//DTD SVG 20010904//EN"
 "http://www.w3.org/TR/2001/REC-SVG-20010904/DTD/svg10.dtd">
<svg version="1.0" xmlns="http://www.w3.org/2000/svg"
 width="682.000000pt" height="682.000000pt" viewBox="0 0 682.000000 682.000000"
 preserveAspectRatio="xMidYMid meet">
<metadata>
Created by potrace 1.11, written by Peter Selinger 2001-2013
</metadata>
<g transform="translate(0.000000,682.000000) scale(0.100000,-0.100000)"
fill="#000000" stroke="none">
<path d="M5193 5876 c-4 -7 -53 -32 -108 -56 -55 -23 -118 -50 -140 -60 -22
-10 -98 -44 -170 -75 -180 -78 -196 -85 -230 -101 -16 -8 -165 -73 -330 -144
-181 -79 -307 -139 -318 -153 -11 -12 -35 -40 -55 -62 -21 -22 -68 -76 -107
-120 -38 -44 -74 -85 -80 -91 -27 -30 -142 -159 -217 -244 -96 -110 -326 -367
-348 -390 -24 -26 -80 -89 -150 -170 -36 -41 -68 -77 -71 -80 -3 -3 -56 -63
-119 -135 -63 -71 -121 -137 -129 -146 -25 -25 -143 -159 -163 -185 -10 -12
-18 -35 -19 -51 -1 -15 -4 -38 -7 -50 -7 -22 -39 -9 -612 254 -19 9 -37 17
-40 18 -9 2 -72 31 -151 69 -63 30 -84 46 -125 98 -27 35 -54 70 -61 78 -17
21 -219 277 -251 320 -30 39 -215 274 -241 305 -9 11 -29 39 -44 62 l-28 41
137 318 c75 176 145 339 155 364 l19 45 -72 -76 c-40 -42 -122 -129 -183 -194
-60 -65 -158 -168 -216 -229 -154 -161 -224 -237 -227 -246 -3 -8 114 -550
127 -590 5 -14 18 -68 30 -120 11 -52 44 -196 72 -320 28 -124 51 -236 51
-249 1 -26 9 -31 180 -90 537 -187 1359 -478 1364 -484 1 -1 -7 -47 -17 -102
-15 -75 -17 -108 -10 -130 9 -26 50 -201 65 -275 35 -173 76 -325 91 -336 19
-14 22 -10 -220 -315 -55 -70 -135 -172 -178 -227 l-78 -101 5 -143 c9 -250
24 -814 25 -916 l1 -63 88 48 c137 74 130 66 137 163 3 47 8 110 10 140 3 30
7 91 10 135 3 44 8 107 10 140 3 33 7 94 10 135 17 233 12 212 53 248 20 18
63 51 95 75 32 23 66 49 77 57 10 8 143 107 297 220 l279 205 33 160 c35 176
35 173 55 265 8 36 17 79 19 95 13 75 69 332 76 350 5 11 19 21 31 22 12 1 23
3 24 5 2 2 42 120 91 263 49 143 100 292 113 332 l25 71 86 38 c47 20 111 48
141 62 30 13 158 69 284 124 126 55 252 110 280 123 28 13 79 35 114 49 l62
26 373 -123 372 -123 -1 -40 c0 -21 -4 -77 -8 -124 -4 -47 -9 -112 -12 -145
-2 -33 -7 -79 -10 -102 -4 -42 1 -50 31 -43 26 5 43 8 85 14 92 13 88 11 95
45 2 11 16 84 30 161 14 77 28 150 31 162 2 13 7 39 10 58 4 19 8 44 10 55 3
11 9 50 16 87 l11 67 -219 221 c-120 122 -220 225 -222 230 -3 7 178 260 271
380 7 9 39 51 72 94 l59 79 12 -47 c7 -25 44 -98 83 -161 39 -64 71 -120 71
-125 0 -4 4 -10 8 -12 4 -1 50 -73 101 -158 52 -85 105 -174 119 -197 l26 -41
145 1 c91 1 145 6 144 12 0 6 -4 28 -7 50 -4 22 -9 51 -11 65 -2 14 -9 54 -15
90 -15 94 -20 122 -25 148 -23 98 -22 99 76 232 l92 124 -16 41 c-8 22 -38 91
-65 152 -60 132 -71 120 113 128 376 16 357 14 393 48 17 17 32 34 32 37 0 3
-53 27 -117 54 -206 85 -327 136 -348 146 -11 5 -227 95 -480 201 -523 217
-580 242 -589 258 -10 15 -33 14 -43 -3z"/>
</g>
</svg>
