<?xml version="1.0" standalone="no"?>
<!DOCTYPE svg PUBLIC "-//W3C//DTD SVG 20010904//EN"
 "http://www.w3.org/TR/2001/REC-SVG-20010904/DTD/svg10.dtd">
<svg version="1.0" xmlns="http://www.w3.org/2000/svg"
 width="468.000000pt" height="468.000000pt" viewBox="0 0 468.000000 468.000000"
 preserveAspectRatio="xMidYMid meet">
<metadata>
Created by potrace 1.11, written by Peter Selinger 2001-2013
</metadata>
<g transform="translate(0.000000,468.000000) scale(0.100000,-0.100000)"
fill="#000000" stroke="none">
<path d="M2241 3534 c-68 -57 -63 -163 10 -229 52 -47 113 -49 160 -7 27 24
33 37 37 84 11 134 -117 228 -207 152z"/>
<path d="M1931 3354 c-125 -67 -192 -114 -228 -162 -59 -78 -39 -138 52 -161
64 -16 253 -13 387 7 l117 18 12 -28 c23 -56 137 -125 247 -149 43 -10 59 -20
80 -48 14 -20 37 -48 50 -63 15 -16 21 -31 16 -40 -4 -7 -4 -10 1 -6 4 4 17 1
29 -7 31 -23 38 -18 21 15 -23 44 -20 50 21 38 48 -13 106 -2 102 19 -2 8 -96
65 -210 127 l-208 111 0 40 c0 71 -27 104 -129 160 -51 27 -130 78 -177 113
-46 34 -88 62 -92 62 -4 0 -45 -21 -91 -46z m67 -116 c2 -8 -15 -26 -38 -42
-59 -39 -52 -50 35 -58 22 -2 30 -8 30 -23 0 -17 -6 -19 -44 -16 -24 1 -55 7
-68 12 -51 19 -42 73 19 118 44 32 61 35 66 9z"/>
<path d="M3663 3065 c-105 -45 -93 -208 19 -263 47 -24 48 -24 85 -5 20 10 45
30 56 44 23 32 25 105 3 147 -17 34 -71 82 -91 82 -7 0 -19 2 -27 5 -7 2 -28
-2 -45 -10z"/>
<path d="M1604 3013 c-10 -16 -20 -51 -22 -79 -4 -45 -1 -54 26 -86 31 -35 59
-50 162 -88 30 -11 66 -29 80 -40 l25 -20 -80 0 c-191 0 -395 -44 -540 -114
-174 -85 -250 -184 -250 -326 0 -106 39 -187 138 -284 172 -172 453 -312 758
-380 161 -35 247 -46 464 -56 214 -10 338 1 493 46 294 84 434 234 393 424
-13 60 -50 150 -62 150 -4 0 4 -28 19 -62 21 -52 26 -79 27 -149 0 -84 -1 -88
-38 -142 -45 -65 -111 -114 -222 -162 -85 -37 -111 -43 -99 -22 4 6 -2 4 -14
-7 -17 -15 -132 -51 -132 -41 0 1 7 19 16 40 8 20 13 39 11 41 -3 3 -12 -13
-20 -35 -19 -47 -23 -50 -87 -60 -55 -9 -56 -8 -35 29 8 14 14 30 14 35 1 6
-10 -8 -22 -30 -22 -39 -24 -40 -80 -43 l-58 -3 24 48 c34 66 58 125 49 119
-4 -2 -25 -41 -47 -86 l-40 -83 -145 6 c-393 17 -761 131 -1023 318 -253 180
-329 374 -216 550 63 98 242 192 447 234 86 18 336 38 363 30 10 -3 23 -21 29
-40 16 -49 -2 -104 -56 -170 l-44 -55 79 0 80 0 59 58 c64 60 90 118 77 169
-6 24 -5 25 37 18 24 -4 48 -11 54 -16 15 -12 31 -75 40 -156 l7 -62 45 32
c24 18 51 42 60 55 31 47 -6 179 -74 269 -17 22 -20 33 -11 36 6 3 3 6 -9 6
-11 1 -36 17 -55 37 -18 19 -63 55 -99 79 l-65 43 -83 -9 c-105 -12 -208 1
-275 35 -27 14 -50 26 -52 26 -1 0 -11 -12 -21 -27z m479 -239 c37 -19 75 -51
88 -76 15 -28 -56 -25 -79 3 -9 12 -30 37 -46 55 -32 39 -18 46 37 18z"/>
<path d="M1503 2853 c9 -2 23 -2 30 0 6 3 -1 5 -18 5 -16 0 -22 -2 -12 -5z"/>
<path d="M1418 2843 c6 -2 18 -2 25 0 6 3 1 5 -13 5 -14 0 -19 -2 -12 -5z"/>
<path d="M1358 2833 c6 -2 18 -2 25 0 6 3 1 5 -13 5 -14 0 -19 -2 -12 -5z"/>
<path d="M1308 2823 c7 -3 16 -2 19 1 4 3 -2 6 -13 5 -11 0 -14 -3 -6 -6z"/>
<path d="M1258 2813 c6 -2 18 -2 25 0 6 3 1 5 -13 5 -14 0 -19 -2 -12 -5z"/>
<path d="M1195 2800 c-13 -5 -14 -9 -5 -9 8 0 24 4 35 9 13 5 14 9 5 9 -8 0
-24 -4 -35 -9z"/>
<path d="M3000 2792 c0 -5 14 -21 30 -37 17 -16 30 -32 30 -36 0 -4 -27 2 -61
12 -33 10 -72 19 -87 19 l-25 0 24 -26 c45 -49 95 -64 235 -68 140 -5 210 -20
371 -82 84 -32 96 -40 138 -92 25 -31 64 -93 86 -137 22 -44 47 -88 56 -97 53
-59 237 29 315 151 32 51 38 128 14 185 -32 78 -120 144 -225 171 -36 9 -58 8
-101 -2 -166 -39 -374 -52 -535 -32 -88 11 -108 16 -212 58 -29 11 -53 17 -53
13z m1008 -208 c37 -25 23 -82 -32 -133 -24 -23 -28 -24 -43 -9 -15 16 -14 19
15 53 46 51 42 59 -23 51 -53 -6 -55 -5 -55 18 0 19 6 26 28 29 58 9 88 6 110
-9z"/>
<path d="M1080 2760 c-8 -5 -10 -10 -5 -10 6 0 17 5 25 10 8 5 11 10 5 10 -5
0 -17 -5 -25 -10z"/>
<path d="M988 2719 c-32 -16 -58 -32 -58 -34 0 -5 119 52 129 61 13 12 -22 -1
-71 -27z"/>
<path d="M889 2659 l-24 -20 28 17 c15 9 27 18 27 20 0 8 -8 4 -31 -17z"/>
<path d="M796 2580 c-94 -98 -146 -248 -117 -335 8 -25 9 -22 4 21 -6 61 17
161 52 220 14 23 48 67 76 98 68 74 57 72 -15 -4z"/>
<path d="M2851 2349 c-17 -40 -30 -74 -28 -76 2 -2 19 29 37 67 17 39 30 73
28 76 -3 2 -19 -28 -37 -67z"/>
<path d="M3433 2364 c16 -20 16 -21 -7 -33 -60 -33 -66 -124 -16 -273 32 -96
34 -99 93 -143 33 -25 61 -44 63 -42 1 1 -5 38 -13 82 -16 92 -10 154 18 187
19 23 19 23 34 4 31 -40 58 -132 62 -211 6 -95 -14 -158 -79 -255 -170 -255
-684 -396 -1274 -350 -509 40 -977 184 -1304 403 -262 176 -399 355 -420 552
l-6 60 -18 -77 c-15 -67 -16 -87 -6 -147 14 -84 63 -191 125 -271 126 -164
399 -353 688 -475 l87 -37 0 -87 0 -88 93 -11 c318 -41 757 -42 1007 -3 74 12
197 30 272 41 422 60 681 196 788 413 42 86 74 243 66 328 -6 68 -35 166 -61
206 -20 30 -19 33 9 33 32 0 153 -62 200 -103 l39 -33 -41 -54 c-57 -75 -83
-148 -89 -251 l-6 -85 78 -88 c43 -47 79 -85 80 -84 1 2 -2 35 -7 73 -9 73 -4
174 13 237 17 64 86 128 138 128 11 0 36 15 54 34 42 41 62 114 52 184 -9 70
-36 162 -47 162 -5 0 -24 -11 -41 -24 -18 -14 -61 -38 -97 -55 -104 -50 -175
-39 -211 32 -15 28 -32 43 -67 58 -55 24 -155 49 -196 49 -16 0 -39 8 -50 18
-21 17 -21 17 -3 -4z"/>
<path d="M691 2200 c0 -8 4 -22 9 -30 12 -18 12 -2 0 25 -6 13 -9 15 -9 5z"/>
<path d="M710 2144 c0 -6 7 -19 16 -30 14 -18 14 -18 3 6 -14 31 -19 36 -19
24z"/>
<path d="M815 1980 c10 -11 20 -20 23 -20 3 0 -3 9 -13 20 -10 11 -20 20 -23
20 -3 0 3 -9 13 -20z"/>
<path d="M3053 1582 c0 -8 9 -12 24 -10 32 4 34 23 2 23 -15 1 -26 -5 -26 -13z"/>
<path d="M2938 1562 c-10 -2 -18 -7 -18 -12 0 -11 43 -21 51 -12 11 11 -14 28
-33 24z"/>
<path d="M3051 1523 c-10 -26 -10 -27 4 -9 8 11 15 23 15 28 0 15 -7 8 -19
-19z"/>
<path d="M2790 1521 c0 -13 27 -21 46 -14 13 5 13 7 2 14 -17 11 -48 11 -48 0z"/>
<path d="M2668 1512 c-10 -2 -18 -7 -18 -12 0 -11 41 -20 56 -12 18 10 -14 30
-38 24z"/>
<path d="M2538 1502 c-10 -2 -18 -7 -18 -12 0 -11 43 -21 53 -11 11 11 -14 28
-35 23z"/>
<path d="M2910 1489 c-7 -11 -10 -23 -7 -25 2 -2 9 7 15 21 14 30 7 33 -8 4z"/>
<path d="M2397 1484 c5 -14 41 -25 47 -15 8 13 -9 27 -30 27 -13 0 -20 -5 -17
-12z"/>
<path d="M2780 1459 c-7 -11 -10 -23 -7 -25 2 -2 9 7 15 21 14 30 7 33 -8 4z"/>
<path d="M2646 1445 c-9 -26 -7 -32 5 -12 6 10 9 21 6 23 -2 3 -7 -2 -11 -11z"/>
<path d="M2396 1435 c-9 -26 -7 -32 5 -12 6 10 9 21 6 23 -2 3 -7 -2 -11 -11z"/>
<path d="M2526 1435 c-9 -26 -7 -32 5 -12 6 10 9 21 6 23 -2 3 -7 -2 -11 -11z"/>
</g>
</svg>
