<?xml version="1.0" standalone="no"?>
<!DOCTYPE svg PUBLIC "-//W3C//DTD SVG 20010904//EN"
 "http://www.w3.org/TR/2001/REC-SVG-20010904/DTD/svg10.dtd">
<svg version="1.0" xmlns="http://www.w3.org/2000/svg"
 width="260.000000pt" height="260.000000pt" viewBox="0 0 260.000000 260.000000"
 preserveAspectRatio="xMidYMid meet">
<metadata>
Created by potrace 1.14, written by Peter Selinger 2001-2017
</metadata>
<g transform="translate(0.000000,260.000000) scale(0.100000,-0.100000)"
fill="#000000" stroke="none">
<path d="M1410 2527 c-95 -61 -573 -363 -792 -499 -65 -40 -118 -75 -118 -78
0 -3 452 -5 1005 -4 621 0 1004 4 1003 10 -2 9 -967 621 -991 629 -7 2 -55
-24 -107 -58z"/>
<path d="M510 1890 c0 -4 22 -31 50 -61 27 -30 50 -58 50 -64 8 -59 3 -458 -5
-463 -5 -4 -48 -7 -95 -7 l-85 0 -200 -120 -199 -120 292 -3 c161 -1 292 -6
293 -10 0 -4 1 -108 2 -232 l2 -225 -42 -63 c-24 -34 -43 -64 -43 -67 0 -3
104 -5 231 -5 l231 0 -53 66 -52 65 -1 232 -1 232 185 5 185 5 0 120 0 120
-170 1 c-93 1 -177 2 -185 3 -13 1 -15 32 -13 223 0 123 2 230 2 238 1 8 18
33 39 55 20 22 45 49 54 61 l18 20 -245 1 c-135 0 -245 -3 -245 -7z"/>
<path d="M1196 1867 c9 -16 35 -60 58 -96 l41 -66 2 -561 2 -562 -44 -63 -44
-64 226 -3 c124 -1 228 0 230 2 3 3 -18 33 -46 68 l-51 63 0 319 c0 180 4 316
9 310 11 -12 240 -399 247 -419 3 -8 10 -15 14 -15 5 0 72 104 149 232 l141
232 0 -329 0 -330 -45 -68 -45 -67 230 0 c126 0 230 3 230 8 0 4 -10 18 -23
32 -12 14 -34 41 -49 60 l-26 35 0 555 0 555 59 97 c32 54 55 99 51 101 -4 3
-116 4 -249 4 -173 0 -240 -3 -236 -11 4 -6 28 -36 55 -67 l48 -56 0 -128 0
-128 -137 -139 c-75 -76 -141 -138 -145 -138 -4 0 -68 62 -143 138 l-135 137
0 130 c0 144 -6 127 81 222 16 18 29 35 29 38 0 2 -112 4 -250 4 l-250 -1 16
-31z"/>
<path d="M489 358 c-1 -55 -1 -297 0 -323 1 -20 4 -21 1014 -20 l1012 0 0 190
0 190 -1012 3 -1013 2 -1 -42z"/>
</g>
</svg>
