<?xml version="1.0" encoding="UTF-8"?><svg xmlns="http://www.w3.org/2000/svg" xmlns:xlink="http://www.w3.org/1999/xlink" id="Layer_2" data-name="Layer 2" viewBox="0 0 592.21 550.87"><defs><style> .cls-1 { fill: url(#linear-gradient-5); } .cls-2 { fill: url(#linear-gradient-4); } .cls-3 { fill: url(#linear-gradient-3); } .cls-4 { fill: url(#linear-gradient-2); } .cls-5 { fill: url(#linear-gradient); } </style><linearGradient id="linear-gradient" x1="7777.96" y1="-6606.3" x2="8328.84" y2="-6606.3" gradientTransform="translate(6902.4 8328.83) rotate(-90)" gradientUnits="userSpaceOnUse"><stop offset="0" stop-color="#e3b678"/><stop offset="1" stop-color="#b89b80" stop-opacity=".9"/></linearGradient><linearGradient id="linear-gradient-2" x1="6899.67" y1="8034.98" x2="7450.54" y2="8034.98" gradientTransform="translate(8331.08 -6899.67) rotate(90)" xlink:href="#linear-gradient"/><linearGradient id="linear-gradient-3" x1="273.3" y1="465.21" x2="318.91" y2="465.21" gradientTransform="matrix(1,0,0,1,0,0)" xlink:href="#linear-gradient"/><linearGradient id="linear-gradient-4" x1="229.17" y1="528.07" x2="274.78" y2="528.07" gradientTransform="matrix(1,0,0,1,0,0)" xlink:href="#linear-gradient"/><linearGradient id="linear-gradient-5" x1="317.43" y1="528.07" x2="363.04" y2="528.07" gradientTransform="matrix(1,0,0,1,0,0)" xlink:href="#linear-gradient"/></defs><g id="Layer_1-2" data-name="Layer 1"><g><path class="cls-5" d="M476.61,19.81l-4.35,4.35c-26.42-26.23-69.26-26.18-95.61.17-26.41,26.41-26.41,69.38,0,95.79l20.59,20.59,20.4-20.4-20.59-20.59c-15.16-15.16-15.16-39.82,0-54.98,15.15-15.15,39.79-15.16,54.95-.03l-32.45,32.45,20.15,20.15,32.45-32.45,55.19,55.19-32.45,32.45,20.15,20.15,32.45-32.45c15.13,15.16,15.12,39.8-.03,54.95-15.16,15.16-39.82,15.16-54.98,0l-35.61-35.61,23.6-23.6-22.38-22.38-46.08,46.08h0s-227.91,227.91-227.91,227.91l-65.39-65.39-22.38,22.38-22.34,22.34,22.38,22.38,22.34-22.34,43.01,43.01-25.72,25.72-22.16-22.16-22.38,22.38,22.16,22.16-25.88,25.88-43.01-43.01,22.7-22.7-22.38-22.38-22.7,22.7h0S0,440.89,0,440.89l65.39,65.39-17.59,17.59c-6.18,6.18-6.18,16.2,0,22.38,6.18,6.18,16.2,6.18,22.38,0L436.48,179.94l35.61,35.61c26.41,26.41,69.38,26.41,95.79,0,26.35-26.35,26.4-69.19.17-95.61l4.35-4.35c26.41-26.41,26.41-69.38,0-95.79-26.41-26.41-69.38-26.41-95.79,0ZM552,95.19l-4.25,4.25-54.98-54.98,4.25-4.25c15.16-15.16,39.82-15.16,54.98,0,15.16,15.16,15.16,39.82,0,54.98Z"/><path class="cls-4" d="M19.81,19.81c-26.41,26.41-26.41,69.38,0,95.79l4.35,4.35c-26.23,26.42-26.18,69.26.17,95.61,26.41,26.41,69.38,26.41,95.79,0l35.61-35.61,366.29,366.29c6.18,6.18,16.2,6.18,22.38,0,6.18-6.18,6.18-16.2,0-22.38l-17.59-17.59,65.39-65.39-22.38-22.38h0s-22.7-22.7-22.7-22.7l-22.38,22.38,22.7,22.7-43.01,43.01-25.88-25.88,22.16-22.16-22.38-22.38-22.16,22.16-25.72-25.72,43.01-43.01,22.34,22.34,22.38-22.38-22.34-22.34-22.38-22.38-65.39,65.39-227.91-227.91h0s-46.08-46.08-46.08-46.08l-22.38,22.38,23.6,23.6-35.61,35.61c-15.16,15.16-39.82,15.16-54.98,0-15.15-15.15-15.16-39.79-.03-54.95l32.45,32.45,20.15-20.15-32.45-32.45,55.19-55.19,32.45,32.45,20.15-20.15-32.45-32.45c15.16-15.13,39.81-15.12,54.95.03,15.16,15.16,15.16,39.82,0,54.98l-20.59,20.59,20.4,20.4,20.59-20.59c26.41-26.41,26.41-69.38,0-95.79-26.35-26.35-69.19-26.4-95.61-.17l-4.35-4.35c-26.41-26.41-69.38-26.41-95.79,0ZM40.21,40.21c15.16-15.16,39.82-15.16,54.98,0l4.25,4.25-54.98,54.98-4.25-4.25c-15.16-15.16-15.16-39.82,0-54.98Z"/><g><circle class="cls-3" cx="296.1" cy="465.21" r="22.8"/><g><circle class="cls-2" cx="251.97" cy="528.07" r="22.8"/><circle class="cls-1" cx="340.23" cy="528.07" r="22.8"/></g></g></g></g></svg>