<?xml version="1.0" encoding="utf-8"?>
<!-- Generator: Adobe Illustrator 15.0.0, SVG Export Plug-In . SVG Version: 6.00 Build 0)  -->
<!DOCTYPE svg PUBLIC "-//W3C//DTD SVG 1.1//EN" "http://www.w3.org/Graphics/SVG/1.1/DTD/svg11.dtd">
<svg version="1.1" id="Layer_1" xmlns="http://www.w3.org/2000/svg" xmlns:xlink="http://www.w3.org/1999/xlink" x="0px" y="0px"
	 width="192px" height="192px" viewBox="0 0 192 192" enable-background="new 0 0 192 192" xml:space="preserve">
<rect fill-rule="evenodd" clip-rule="evenodd" fill="#FD7B61" width="192" height="192"/>
<g transform="translate(0.000000,192.000000) scale(0.100000,-0.100000)">
	<path fill="#FFFFFF" d="M1099.004,1761.001c0-58.003,0-243.999,0-413.003c0.996-285.996,0-307.998-17.002-308.999
		c-22.998-1.001-211.001-1.001-238.003,0c-21.001,1.001-21.997,5-22.998,133.003c-1.001,72.998-3.999,135-7.002,137.998
		c-2.998,2.998-51.001,6.001-106.997,6.001c-56.001,1.001-107.002,1.997-112.002,2.998c-7.002,1.001-10,43.003-10,112.002
		c0,61.001-2.998,112.998-7.998,116.001c-12.002,6.997-296.001,6.997-304.004-1.001c-3.999-3.003-6.997-286.001-7.998-628.999
		L263.999,295l120-120.996l120-122.002h158.003L820,52.998l1.001,106.006c0,57.998,0,165-1.001,235.996l-1.001,130h138.003H1095
		l2.002-35c0.996-19.004,2.002-72.002,2.002-117.002l0.996-82.002l117.002-2.998L1335,285V167.998V50.996l157.998,1.006
		c152.998,0,157.002,0.996,157.998,22.002c1.006,10.996,2.002,365,3.008,785.996l1.992,765l-120,121.001l-118.994,121.997h-159.004
		L1100,1867.002L1099.004,1761.001z M1375,1727.998c0.996-92.998,0-97.998-20-97.998s-20-2.998-20-392.002V845l-255.996-2.998
		L822.002,840l-1.001,80L820,1000l87.002,1.001c48.999,0,120.996,0,160.996,0H1140v412.998v412.002h117.002l117.002-1.001
		L1375,1727.998z M1502.998,1632.002c-42.002-2.002-78.994,0.996-82.002,6.997c-5,7.002-5.996,136.001-1.992,160
		c0.996,3.003,36.992-32.998,80.996-80l79.004-83.999L1502.998,1632.002z M541.001,1502.998c1.001-5,1.997-45.996,2.998-90.996
		c1.001-68.003-1.997-86.001-15-93.003c-8.999-3.999-18.999-6.001-21.001-2.998c-2.998,1.997-5-218.003-3.999-491.001L505,330
		h-97.002H310l-1.001,32.998c0,36.006,0,1115,1.001,1135c0,9.004,30,12.002,115,12.002
		C487.998,1510,541.001,1507.002,541.001,1502.998z M1335,440c0.996-47.002-0.996-90.996-2.998-97.002
		C1329.004,334.004,1300,330,1234.004,330H1140v92.998c0,52.002,2.002,96.006,5,97.998c2.002,3.008,45.996,5,97.002,4.004H1335V440z
		 M501.001,282.998C505,247.998,503.999,127.002,500,125c-2.998-2.002-43.999,34.004-90,80.996L325,290h87.998
		C461.001,290,500,287.002,501.001,282.998z"/>
</g>
</svg>
