<svg id="svg" version="1.1" xmlns="http://www.w3.org/2000/svg" xmlns:xlink="http://www.w3.org/1999/xlink" width="400" height="366.40625" viewBox="0, 0, 400,366.40625"><g id="svgg"><path id="path0" d="M281.760 0.372 C 280.620 0.681,275.210 1.899,274.244 2.065 C 273.941 2.116,273.034 2.322,272.227 2.522 C 271.421 2.722,268.740 3.337,266.269 3.888 C 263.799 4.439,261.778 5.005,261.778 5.144 C 261.778 5.284,261.341 5.314,260.807 5.212 C 260.273 5.110,259.927 5.174,260.039 5.355 C 260.150 5.535,259.886 5.702,259.452 5.726 C 259.017 5.750,256.653 6.281,254.198 6.906 C 251.743 7.530,249.269 8.126,248.699 8.228 C 245.584 8.789,239.047 10.425,239.047 10.643 C 239.047 10.783,238.634 10.819,238.130 10.722 C 237.608 10.622,237.214 10.718,237.214 10.945 C 237.214 11.164,236.964 11.247,236.659 11.130 C 236.354 11.013,235.880 11.103,235.606 11.331 C 235.331 11.559,234.811 11.632,234.450 11.493 C 233.999 11.320,233.877 11.376,234.059 11.670 C 234.222 11.935,234.070 12.110,233.661 12.127 C 233.296 12.142,232.750 12.216,232.447 12.291 C 232.145 12.366,231.485 12.516,230.981 12.625 C 228.634 13.131,224.877 13.972,224.381 14.102 C 224.079 14.181,222.646 14.501,221.196 14.812 C 216.178 15.891,213.564 16.621,213.296 17.017 C 213.104 17.301,213.025 17.298,213.021 17.008 C 213.018 16.772,212.630 16.674,212.099 16.776 C 211.595 16.872,211.182 17.108,211.182 17.299 C 211.182 17.491,210.832 17.537,210.403 17.401 C 209.879 17.234,209.706 17.286,209.875 17.559 C 210.026 17.804,209.839 17.965,209.404 17.965 C 209.008 17.965,205.740 18.645,202.142 19.475 C 198.544 20.306,194.394 21.258,192.920 21.592 C 191.446 21.925,190.338 22.296,190.458 22.416 C 190.578 22.536,190.233 22.550,189.692 22.447 C 189.151 22.343,188.799 22.406,188.908 22.587 C 189.018 22.767,188.364 22.936,187.453 22.963 C 186.543 22.989,185.690 23.186,185.557 23.401 C 185.424 23.616,184.796 23.884,184.160 23.995 C 183.525 24.107,181.549 24.546,179.770 24.970 C 177.991 25.394,176.123 25.813,175.619 25.901 C 174.086 26.169,166.673 27.902,166.086 28.130 C 165.784 28.247,165.371 28.365,165.170 28.390 C 163.462 28.609,161.653 29.089,161.480 29.369 C 161.364 29.556,161.119 29.617,160.935 29.503 C 160.752 29.390,160.254 29.483,159.829 29.711 C 159.404 29.938,158.617 30.200,158.080 30.292 C 157.543 30.383,155.371 30.883,153.254 31.401 C 151.137 31.919,148.909 32.422,148.304 32.518 C 147.472 32.650,140.013 34.423,136.572 35.307 C 136.370 35.359,136.040 35.495,135.839 35.609 C 135.430 35.841,133.124 36.434,130.339 37.023 C 129.331 37.236,128.176 37.499,127.773 37.606 C 126.933 37.829,125.970 38.045,124.656 38.305 C 120.780 39.072,115.285 40.491,115.184 40.751 C 115.116 40.925,114.903 40.970,114.710 40.851 C 114.516 40.731,114.159 40.790,113.916 40.982 C 113.673 41.173,113.226 41.341,112.924 41.354 C 112.621 41.367,111.302 41.650,109.991 41.982 C 107.005 42.738,106.526 42.855,103.208 43.631 C 102.200 43.867,100.962 44.134,100.458 44.225 C 99.954 44.316,98.344 44.714,96.880 45.110 C 95.415 45.506,93.889 45.830,93.488 45.830 C 93.087 45.830,92.759 46.004,92.759 46.218 C 92.759 46.431,92.611 46.515,92.430 46.403 C 91.949 46.106,89.804 46.598,90.025 46.955 C 90.128 47.121,89.862 47.190,89.434 47.108 C 89.006 47.026,88.301 47.181,87.866 47.453 C 87.432 47.725,86.416 48.065,85.610 48.209 C 84.803 48.353,83.731 48.546,83.226 48.637 C 80.870 49.066,66.890 52.553,66.728 52.753 C 66.627 52.877,66.379 52.983,66.178 52.988 C 65.976 52.993,64.904 53.260,63.795 53.581 C 62.686 53.902,59.221 54.788,56.095 55.551 C 52.970 56.313,50.250 57.029,50.052 57.140 C 49.854 57.252,49.442 57.365,49.136 57.390 C 48.117 57.475,44.549 58.451,44.363 58.696 C 44.194 58.918,43.152 59.223,35.747 61.214 C 30.776 62.551,30.064 62.787,30.064 63.095 C 30.064 63.265,29.823 63.312,29.528 63.199 C 28.946 62.976,25.784 63.913,24.015 64.832 C 23.410 65.147,22.649 65.450,22.323 65.506 C 21.998 65.562,21.255 65.803,20.673 66.041 C 20.091 66.279,19.450 66.514,19.248 66.564 C 16.944 67.131,9.666 70.221,9.899 70.533 C 10.055 70.741,8.134 71.936,6.233 72.813 C 5.289 73.248,3.319 75.261,3.519 75.585 C 3.624 75.755,3.537 75.894,3.326 75.894 C 2.342 75.894,1.457 79.440,0.917 85.558 C 0.812 86.740,0.648 87.833,0.552 87.989 C 0.054 88.795,0.035 96.533,0.529 97.714 C 1.775 100.696,8.086 100.846,22.181 98.226 C 24.400 97.814,26.709 97.392,27.314 97.290 C 27.919 97.187,29.074 96.942,29.881 96.745 C 30.687 96.549,31.595 96.345,31.897 96.293 C 32.200 96.241,33.229 96.066,34.185 95.904 C 35.141 95.742,35.851 95.493,35.763 95.351 C 35.675 95.208,36.112 95.166,36.735 95.258 C 37.593 95.384,37.797 95.309,37.576 94.951 C 37.382 94.638,37.429 94.569,37.716 94.746 C 37.953 94.893,38.845 94.759,39.697 94.448 C 40.549 94.137,41.742 93.810,42.346 93.721 C 42.951 93.632,46.334 92.959,49.863 92.227 C 53.391 91.494,57.553 90.631,59.111 90.310 C 60.668 89.988,61.863 89.597,61.767 89.441 C 61.670 89.284,62.128 89.231,62.784 89.323 C 63.687 89.449,63.844 89.397,63.428 89.108 C 63.020 88.825,63.185 88.786,64.070 88.956 C 64.843 89.104,65.261 89.040,65.261 88.772 C 65.261 88.545,65.609 88.359,66.033 88.359 C 66.458 88.359,67.736 88.130,68.875 87.850 C 70.013 87.570,75.014 86.459,79.988 85.382 C 84.962 84.305,88.954 83.299,88.860 83.146 C 88.765 82.993,88.955 82.971,89.282 83.096 C 89.608 83.221,90.235 83.147,90.676 82.931 C 91.434 82.558,95.320 81.585,97.709 81.170 C 98.313 81.065,99.468 80.796,100.275 80.571 C 101.082 80.347,101.847 80.187,101.975 80.215 C 102.104 80.243,102.764 80.104,103.442 79.907 C 104.120 79.710,105.170 79.459,105.775 79.351 C 106.727 79.180,108.400 78.793,110.357 78.291 C 110.660 78.213,111.288 78.137,111.754 78.122 C 112.220 78.106,112.526 77.970,112.434 77.819 C 112.342 77.667,113.020 77.508,113.941 77.465 C 114.861 77.421,115.710 77.242,115.827 77.066 C 116.042 76.743,118.252 76.120,120.623 75.713 C 121.329 75.591,122.979 75.240,124.290 74.932 C 125.600 74.624,127.003 74.307,127.406 74.227 C 127.809 74.146,129.212 73.836,130.522 73.536 C 131.833 73.236,134.555 72.628,136.572 72.183 C 138.588 71.739,140.321 71.261,140.422 71.121 C 140.522 70.981,141.265 70.734,142.071 70.571 C 142.878 70.409,143.703 70.227,143.905 70.166 C 144.106 70.106,144.849 69.954,145.555 69.830 C 146.260 69.705,148.570 69.191,150.687 68.688 C 152.805 68.184,154.950 67.694,155.454 67.598 C 158.218 67.072,166.008 65.209,166.636 64.923 C 167.516 64.524,170.053 63.856,172.319 63.427 C 173.226 63.256,175.041 62.849,176.352 62.523 C 177.663 62.198,179.148 61.852,179.652 61.754 C 183.512 61.010,189.131 59.600,189.734 59.225 C 190.137 58.974,191.457 58.586,192.667 58.362 C 193.877 58.138,196.599 57.530,198.717 57.010 C 200.834 56.490,202.852 56.061,203.201 56.057 C 203.550 56.052,203.932 55.891,204.051 55.699 C 204.170 55.507,204.393 55.428,204.546 55.523 C 204.700 55.617,205.719 55.454,206.812 55.159 C 207.905 54.864,209.943 54.380,211.340 54.082 C 212.738 53.784,213.975 53.390,214.090 53.205 C 214.205 53.020,214.950 52.766,215.745 52.640 C 218.227 52.246,237.020 47.572,237.214 47.300 C 237.409 47.026,238.889 46.603,240.697 46.305 C 241.302 46.205,242.085 45.969,242.438 45.780 C 242.791 45.592,243.080 45.504,243.080 45.586 C 243.080 45.668,244.358 45.423,245.921 45.041 C 247.484 44.659,249.175 44.264,249.679 44.163 C 253.420 43.409,259.040 42.085,259.366 41.880 C 259.584 41.743,260.060 41.681,260.425 41.741 C 260.790 41.801,261.285 41.689,261.525 41.492 C 261.765 41.294,262.621 41.033,263.428 40.911 C 264.235 40.789,265.720 40.526,266.728 40.327 C 275.200 38.651,279.298 38.546,281.943 39.937 C 282.851 40.415,283.646 40.739,283.710 40.659 C 283.775 40.579,283.983 40.791,284.173 41.130 C 284.362 41.468,285.382 42.225,286.438 42.810 C 287.495 43.396,288.929 44.191,289.626 44.577 C 290.322 44.964,291.137 45.505,291.437 45.781 C 291.736 46.057,292.453 46.447,293.030 46.648 C 293.607 46.850,293.993 47.100,293.888 47.206 C 293.701 47.393,297.438 50.229,297.873 50.229 C 298.211 50.229,301.813 52.760,302.261 53.313 C 302.480 53.583,303.896 54.642,305.408 55.666 C 306.920 56.691,308.566 57.854,309.064 58.250 C 309.562 58.647,310.099 58.892,310.256 58.795 C 310.412 58.698,310.548 58.834,310.556 59.098 C 310.571 59.588,315.009 63.061,315.619 63.061 C 315.803 63.061,316.633 63.741,317.464 64.571 C 318.294 65.401,318.973 65.942,318.973 65.773 C 318.973 65.603,319.217 65.813,319.516 66.239 C 319.814 66.664,320.927 67.593,321.990 68.301 C 323.053 69.010,324.665 70.285,325.573 71.134 C 326.480 71.984,327.800 73.051,328.506 73.505 C 329.212 73.960,330.785 75.219,332.002 76.304 C 333.219 77.389,334.826 78.689,335.574 79.193 C 336.322 79.698,336.935 80.234,336.936 80.385 C 336.937 80.536,337.121 80.660,337.344 80.660 C 337.567 80.660,338.074 81.072,338.471 81.577 C 338.867 82.081,339.427 82.493,339.715 82.493 C 340.003 82.493,340.238 82.648,340.238 82.838 C 340.238 83.241,345.261 87.443,345.743 87.443 C 345.923 87.443,346.511 87.976,347.051 88.627 C 347.590 89.278,348.201 89.706,348.408 89.578 C 348.632 89.440,348.672 89.528,348.507 89.794 C 348.331 90.079,348.511 90.315,349.001 90.443 C 349.424 90.554,349.771 90.785,349.771 90.957 C 349.771 91.129,350.637 91.913,351.696 92.699 C 352.754 93.486,354.268 94.745,355.060 95.497 C 355.851 96.249,357.089 97.245,357.809 97.711 C 358.530 98.178,360.190 99.564,361.497 100.792 C 362.804 102.020,364.001 103.025,364.157 103.025 C 364.312 103.025,365.637 104.069,367.101 105.345 C 368.564 106.622,369.989 107.590,370.266 107.498 C 370.544 107.405,370.669 107.494,370.545 107.696 C 370.420 107.897,371.263 108.808,372.419 109.719 C 373.574 110.630,375.921 112.557,377.635 114.001 C 379.349 115.444,381.230 116.882,381.816 117.196 C 382.401 117.510,383.262 118.221,383.729 118.776 C 384.196 119.330,385.532 120.426,386.698 121.210 C 387.864 121.994,389.776 123.502,390.947 124.562 C 392.118 125.622,393.233 126.489,393.425 126.489 C 393.617 126.489,394.457 126.984,395.292 127.589 C 397.028 128.847,398.533 129.051,398.533 128.029 C 398.533 127.666,398.692 127.210,398.887 127.016 C 400.268 125.635,400.362 109.001,399.008 105.591 C 398.888 105.289,398.728 104.718,398.652 104.324 C 398.577 103.929,398.313 103.478,398.066 103.321 C 397.819 103.164,397.749 103.033,397.911 103.030 C 398.616 103.017,395.600 98.179,393.469 95.907 C 392.646 95.028,392.055 94.227,392.156 94.126 C 392.257 94.025,391.896 93.594,391.354 93.167 C 390.812 92.741,390.502 92.392,390.665 92.392 C 390.828 92.392,390.579 91.985,390.111 91.487 C 389.644 90.989,389.116 90.671,388.939 90.781 C 388.761 90.891,388.661 90.835,388.717 90.657 C 388.822 90.319,377.948 79.125,377.728 79.345 C 377.659 79.414,376.099 78.012,374.263 76.229 C 372.426 74.446,370.784 73.073,370.613 73.179 C 370.442 73.284,370.302 73.217,370.302 73.029 C 370.302 72.842,369.737 72.301,369.047 71.828 C 368.356 71.355,367.860 70.857,367.943 70.722 C 368.095 70.477,365.237 67.970,364.707 67.883 C 364.306 67.818,361.968 65.709,360.261 63.873 C 359.431 62.980,358.584 62.385,358.300 62.494 C 358.024 62.600,357.900 62.523,358.023 62.324 C 358.146 62.125,358.111 61.962,357.946 61.962 C 357.780 61.962,356.513 60.889,355.129 59.578 C 353.745 58.268,352.489 57.195,352.338 57.195 C 352.187 57.195,351.423 56.606,350.642 55.886 C 349.860 55.165,348.561 54.017,347.754 53.335 C 346.948 52.652,344.150 50.284,341.536 48.071 C 338.923 45.859,336.629 44.145,336.438 44.262 C 336.248 44.380,336.199 44.304,336.329 44.093 C 336.523 43.778,335.024 42.434,334.372 42.339 C 334.271 42.324,333.053 41.201,331.666 39.842 C 330.278 38.483,329.064 37.450,328.968 37.546 C 328.872 37.642,328.359 37.317,327.829 36.825 C 327.298 36.333,326.738 35.930,326.585 35.930 C 326.432 35.930,326.306 35.760,326.306 35.553 C 326.306 35.078,324.484 33.470,321.379 31.207 C 320.056 30.242,319.053 29.373,319.151 29.276 C 319.248 29.178,318.138 28.202,316.683 27.107 C 315.228 26.011,313.598 24.672,313.059 24.131 C 312.521 23.590,311.981 23.246,311.860 23.367 C 311.740 23.488,311.641 23.323,311.641 23.001 C 311.641 22.678,311.352 22.321,310.999 22.207 C 310.646 22.093,309.830 21.505,309.186 20.899 C 308.541 20.294,307.905 19.798,307.772 19.798 C 307.639 19.798,307.208 19.389,306.814 18.889 C 306.421 18.389,305.910 18.017,305.678 18.064 C 305.447 18.110,305.250 17.957,305.241 17.723 C 305.225 17.313,303.208 15.512,303.208 15.908 C 303.208 16.015,302.584 15.491,301.821 14.743 C 300.276 13.226,298.075 11.302,298.075 11.467 C 298.075 11.526,297.055 10.628,295.808 9.470 C 294.562 8.313,293.077 7.174,292.509 6.938 C 291.941 6.703,291.476 6.354,291.476 6.162 C 291.476 5.971,291.261 5.619,290.998 5.382 C 288.609 3.223,288.099 2.824,288.330 3.300 C 288.477 3.602,288.241 3.396,287.806 2.841 C 287.371 2.287,286.872 1.833,286.698 1.833 C 286.523 1.833,285.936 1.421,285.392 0.917 C 284.370 -0.030,283.648 -0.138,281.760 0.372 M278.093 83.961 C 275.875 84.316,273.318 84.716,272.411 84.852 C 262.964 86.266,256.444 87.377,256.365 87.587 C 256.311 87.729,255.670 87.774,254.940 87.689 C 254.029 87.583,253.691 87.662,253.864 87.941 C 254.037 88.222,253.769 88.279,252.998 88.125 C 252.373 88.000,251.664 88.082,251.388 88.310 C 251.117 88.535,250.790 88.615,250.663 88.487 C 250.535 88.359,250.147 88.485,249.801 88.765 C 249.255 89.208,249.215 89.203,249.496 88.726 C 249.754 88.288,249.713 88.258,249.291 88.580 C 249.001 88.802,247.608 89.171,246.196 89.400 C 244.785 89.630,243.300 89.881,242.896 89.958 C 242.493 90.035,241.338 90.209,240.330 90.344 C 239.322 90.480,237.259 90.824,235.747 91.109 C 234.235 91.394,232.420 91.713,231.714 91.818 C 224.444 92.899,222.237 93.286,222.344 93.465 C 222.413 93.581,221.469 93.711,220.247 93.754 C 219.025 93.797,217.929 93.979,217.812 94.160 C 217.695 94.341,217.273 94.438,216.874 94.377 C 216.476 94.316,216.064 94.385,215.958 94.530 C 215.791 94.758,210.348 95.782,206.416 96.325 C 205.710 96.422,201.916 97.073,197.984 97.771 C 194.051 98.468,190.471 99.031,190.027 99.021 C 189.584 99.011,189.134 99.143,189.028 99.315 C 188.922 99.486,188.394 99.542,187.855 99.439 C 187.316 99.336,186.967 99.400,187.078 99.580 C 187.190 99.761,186.761 99.928,186.124 99.953 C 184.292 100.023,183.164 100.201,182.768 100.481 C 182.390 100.749,181.146 101.028,178.918 101.346 C 175.881 101.779,174.668 101.977,174.152 102.123 C 173.850 102.209,172.942 102.363,172.136 102.465 C 171.329 102.568,169.267 102.909,167.553 103.224 C 165.839 103.538,163.941 103.865,163.336 103.949 C 159.418 104.497,154.787 105.402,154.906 105.595 C 154.984 105.722,154.561 105.754,153.964 105.666 C 153.368 105.579,152.642 105.705,152.352 105.946 C 152.050 106.196,151.479 106.276,151.026 106.132 C 150.487 105.961,150.310 106.011,150.480 106.285 C 150.639 106.543,150.356 106.701,149.701 106.718 C 149.134 106.733,148.258 106.820,147.754 106.911 C 145.867 107.253,125.437 110.728,122.090 111.277 C 120.174 111.591,118.296 112.023,117.916 112.236 C 117.536 112.450,116.629 112.692,115.900 112.774 C 115.170 112.856,114.227 113.003,113.803 113.100 C 113.379 113.198,112.389 113.371,111.603 113.486 C 110.817 113.601,109.184 113.868,107.974 114.080 C 106.764 114.291,105.445 114.521,105.041 114.590 C 104.638 114.659,100.348 115.396,95.509 116.226 C 90.669 117.056,86.132 117.953,85.426 118.219 C 84.720 118.486,82.493 118.970,80.477 119.295 C 74.447 120.269,73.548 120.425,68.561 121.368 C 66.455 121.766,64.852 122.053,63.611 122.255 C 56.673 123.380,55.110 123.686,54.737 123.991 C 54.493 124.190,54.122 124.246,53.912 124.116 C 53.701 123.986,53.529 124.018,53.529 124.188 C 53.529 124.358,53.075 124.532,52.521 124.575 C 51.966 124.618,50.687 124.821,49.679 125.026 C 46.998 125.573,46.567 125.652,41.675 126.492 C 32.370 128.092,28.563 128.900,28.852 129.216 C 29.018 129.398,28.946 129.424,28.688 129.276 C 28.002 128.881,24.891 129.428,25.178 129.893 C 25.327 130.133,25.191 130.193,24.820 130.051 C 24.491 129.925,24.130 129.968,24.019 130.149 C 23.908 130.329,23.531 130.465,23.183 130.451 C 22.834 130.438,22.136 130.520,21.632 130.634 C 21.127 130.747,19.890 131.011,18.882 131.220 C 16.069 131.801,15.581 131.921,12.834 132.699 C 11.927 132.956,10.855 133.227,10.451 133.301 C 8.999 133.569,5.143 135.376,5.341 135.695 C 5.452 135.875,5.305 136.022,5.014 136.022 C 4.446 136.022,1.467 138.829,1.467 139.365 C 1.467 140.009,1.399 140.245,1.111 140.605 C -0.388 142.482,-0.436 161.341,1.051 164.364 C 2.493 167.296,4.956 168.071,10.087 167.205 C 12.882 166.733,13.942 166.598,15.512 166.510 C 16.078 166.479,16.455 166.312,16.348 166.139 C 16.241 165.967,16.563 165.904,17.062 165.999 C 17.561 166.094,18.175 166.008,18.426 165.808 C 18.676 165.607,19.954 165.258,21.265 165.032 C 22.576 164.806,23.978 164.563,24.381 164.490 C 24.785 164.418,29.022 163.724,33.797 162.947 C 38.840 162.127,42.389 161.389,42.265 161.188 C 42.147 160.996,42.243 160.959,42.480 161.106 C 43.128 161.507,46.967 160.943,46.685 160.488 C 46.547 160.265,46.627 160.217,46.879 160.372 C 47.397 160.692,51.386 160.242,51.167 159.888 C 51.083 159.752,51.621 159.699,52.363 159.770 C 53.385 159.869,53.579 159.807,53.162 159.516 C 52.723 159.208,52.833 159.121,53.712 159.079 C 54.867 159.024,55.354 158.964,57.745 158.585 C 58.552 158.457,59.789 158.272,60.495 158.174 C 61.757 157.999,74.101 155.940,75.894 155.606 C 76.398 155.512,77.326 155.372,77.956 155.295 C 81.290 154.888,84.657 154.226,84.520 154.005 C 84.435 153.866,84.865 153.827,85.475 153.916 C 86.086 154.006,86.944 153.904,87.381 153.689 C 88.094 153.340,93.098 152.416,96.975 151.919 C 97.782 151.815,99.019 151.584,99.725 151.406 C 100.912 151.105,101.759 150.969,105.225 150.522 C 110.684 149.817,114.690 149.042,114.495 148.727 C 114.359 148.507,114.530 148.463,114.927 148.615 C 115.696 148.910,119.213 148.509,118.992 148.151 C 118.909 148.017,119.430 147.976,120.149 148.060 C 120.935 148.152,121.369 148.071,121.237 147.858 C 121.108 147.649,122.337 147.333,124.212 147.092 C 125.969 146.867,127.812 146.596,128.308 146.491 C 128.804 146.386,129.876 146.208,130.691 146.095 C 131.506 145.982,133.080 145.736,134.189 145.549 C 135.298 145.363,136.700 145.135,137.305 145.044 C 148.303 143.392,155.401 142.099,155.207 141.785 C 155.079 141.578,155.123 141.499,155.305 141.610 C 155.488 141.721,156.792 141.584,158.203 141.305 C 159.615 141.025,161.512 140.703,162.420 140.589 C 163.327 140.475,164.647 140.236,165.353 140.059 C 166.059 139.881,167.468 139.636,168.485 139.514 C 169.501 139.392,172.059 138.961,174.167 138.557 C 176.276 138.153,178.249 137.810,178.552 137.795 C 179.611 137.743,184.955 136.693,185.326 136.464 C 185.532 136.337,186.173 136.282,186.751 136.342 C 187.362 136.407,187.708 136.304,187.580 136.096 C 187.453 135.890,188.229 135.630,189.409 135.483 C 191.879 135.174,192.887 135.012,195.050 134.575 C 195.958 134.392,198.680 133.896,201.100 133.475 C 203.520 133.053,206.819 132.460,208.433 132.157 C 210.046 131.854,211.696 131.552,212.099 131.485 C 216.855 130.704,218.389 130.395,218.698 130.156 C 218.900 130.001,219.560 129.783,220.165 129.671 C 220.770 129.559,225.505 128.686,230.687 127.730 C 236.325 126.690,240.020 125.848,239.888 125.634 C 239.765 125.435,239.855 125.393,240.091 125.539 C 240.663 125.892,243.858 125.392,243.608 124.987 C 243.499 124.811,243.939 124.773,244.585 124.902 C 245.373 125.060,245.681 125.009,245.519 124.748 C 245.367 124.501,245.556 124.431,246.036 124.556 C 246.453 124.665,247.155 124.577,247.595 124.359 C 248.036 124.142,252.108 123.204,256.645 122.275 C 266.877 120.180,268.827 119.730,268.615 119.512 C 268.523 119.417,269.143 119.321,269.994 119.298 C 270.844 119.275,272.107 118.997,272.800 118.681 C 273.493 118.365,275.133 117.821,276.444 117.473 C 281.943 116.012,284.632 112.995,285.733 107.052 C 286.318 103.894,286.452 103.416,286.709 103.574 C 288.076 104.419,288.067 88.764,286.699 86.030 C 285.164 82.963,284.837 82.884,278.093 83.961 M262.145 168.759 C 262.044 168.855,259.817 169.047,257.195 169.185 C 254.574 169.322,249.789 169.668,246.563 169.953 C 243.336 170.238,240.151 170.474,239.483 170.478 C 238.816 170.482,238.347 170.610,238.441 170.761 C 238.535 170.912,237.678 170.987,236.538 170.927 C 235.094 170.851,234.626 170.927,234.996 171.178 C 235.366 171.427,234.890 171.501,233.438 171.421 C 232.288 171.357,231.347 171.423,231.347 171.567 C 231.347 171.712,231.141 171.835,230.889 171.842 C 230.637 171.849,229.276 171.972,227.864 172.117 C 225.124 172.397,224.271 172.479,220.006 172.870 C 218.507 173.008,216.995 173.175,216.645 173.243 C 216.295 173.310,214.810 173.475,213.345 173.609 C 211.880 173.744,210.410 173.906,210.078 173.970 C 209.746 174.034,208.086 174.193,206.387 174.325 C 204.689 174.456,203.052 174.634,202.750 174.720 C 202.447 174.806,201.292 174.957,200.183 175.056 C 193.078 175.687,183.415 176.807,182.950 177.053 C 182.647 177.214,181.864 177.313,181.209 177.274 C 180.554 177.235,180.018 177.309,180.018 177.438 C 180.018 177.567,177.997 177.874,175.527 178.119 C 173.057 178.365,170.623 178.632,170.119 178.713 C 169.615 178.793,168.378 178.943,167.369 179.045 C 157.865 180.003,137.652 182.384,137.580 182.553 C 137.530 182.671,136.664 182.711,135.656 182.641 C 134.647 182.571,133.822 182.668,133.822 182.855 C 133.822 183.043,133.203 183.179,132.447 183.156 C 131.691 183.134,130.825 183.234,130.522 183.378 C 130.220 183.523,128.240 183.821,126.123 184.041 C 124.005 184.261,121.778 184.510,121.173 184.594 C 120.568 184.678,112.649 185.592,103.575 186.624 C 94.500 187.656,86.829 188.630,86.526 188.788 C 86.224 188.946,85.595 189.016,85.129 188.945 C 84.629 188.869,84.375 188.966,84.509 189.183 C 84.648 189.408,84.053 189.562,82.973 189.579 C 82.003 189.594,80.950 189.658,80.632 189.720 C 80.315 189.783,79.077 189.945,77.883 190.082 C 75.049 190.405,74.097 190.523,70.577 190.986 C 68.964 191.198,65.500 191.625,62.878 191.935 C 58.502 192.453,48.116 193.839,46.379 194.137 C 45.976 194.206,45.183 194.275,44.616 194.290 C 44.050 194.305,43.669 194.451,43.771 194.616 C 43.872 194.780,43.346 194.939,42.601 194.968 C 41.856 194.998,40.009 195.262,38.497 195.555 C 36.984 195.848,34.840 196.198,33.731 196.334 C 32.621 196.469,30.889 196.737,29.881 196.927 C 28.873 197.118,27.470 197.365,26.764 197.475 C 23.273 198.021,14.678 199.834,13.727 200.225 C 13.134 200.469,12.525 200.642,12.374 200.609 C 12.223 200.577,12.099 200.725,12.099 200.938 C 12.099 201.152,11.975 201.254,11.824 201.165 C 11.673 201.076,11.137 201.173,10.632 201.380 C 10.128 201.588,9.465 201.810,9.158 201.872 C 6.671 202.381,2.758 204.916,1.681 206.717 C 0.560 208.590,0.021 219.658,0.874 223.267 C 0.991 223.763,1.186 224.832,1.307 225.642 C 1.428 226.453,1.632 227.284,1.761 227.490 C 1.890 227.696,2.025 228.053,2.060 228.284 C 2.655 232.199,8.526 234.869,15.582 234.435 C 21.843 234.049,24.000 233.847,26.948 233.372 C 31.124 232.698,32.017 232.572,36.376 232.039 C 38.335 231.800,39.875 231.502,39.798 231.377 C 39.721 231.253,40.326 231.214,41.142 231.292 C 41.975 231.372,42.536 231.287,42.420 231.100 C 42.306 230.916,42.776 230.833,43.477 230.915 C 44.172 230.996,44.956 230.883,45.220 230.664 C 45.484 230.444,47.334 230.083,49.330 229.860 C 51.327 229.638,53.054 229.398,53.168 229.328 C 53.281 229.257,54.523 229.096,55.927 228.969 C 57.330 228.842,58.726 228.674,59.028 228.595 C 59.331 228.517,60.568 228.353,61.778 228.232 C 62.988 228.111,65.074 227.858,66.414 227.670 C 67.754 227.482,69.734 227.235,70.814 227.121 C 71.894 227.007,73.189 226.826,73.692 226.718 C 74.194 226.610,75.432 226.453,76.441 226.368 C 77.451 226.283,78.607 226.149,79.010 226.070 C 79.413 225.991,81.022 225.807,82.585 225.661 C 84.148 225.515,85.426 225.286,85.426 225.153 C 85.426 225.021,86.127 224.967,86.984 225.035 C 87.998 225.115,88.374 225.041,88.060 224.824 C 87.740 224.603,88.482 224.410,90.259 224.252 C 91.735 224.121,94.262 223.859,95.875 223.671 C 97.489 223.483,99.716 223.230,100.825 223.109 C 101.934 222.988,103.336 222.815,103.941 222.725 C 104.546 222.636,105.949 222.469,107.058 222.356 C 108.167 222.242,110.147 221.999,111.457 221.814 C 112.768 221.630,117.334 221.107,121.605 220.652 C 125.875 220.197,129.314 219.736,129.247 219.628 C 129.180 219.520,129.976 219.419,131.016 219.403 C 133.821 219.360,135.686 219.157,135.449 218.920 C 135.333 218.804,137.931 218.434,141.222 218.097 C 150.392 217.159,161.723 215.956,163.153 215.768 C 163.859 215.676,166.251 215.418,168.469 215.197 C 170.687 214.975,173.162 214.724,173.969 214.640 C 174.775 214.556,176.178 214.417,177.085 214.331 C 186.196 213.474,188.394 213.207,188.060 213.001 C 187.847 212.869,189.126 212.659,190.903 212.535 C 192.680 212.411,194.506 212.230,194.961 212.133 C 195.416 212.036,197.066 211.864,198.627 211.751 C 201.345 211.553,206.289 211.054,217.049 209.890 C 219.771 209.595,222.741 209.263,223.648 209.152 C 224.555 209.040,226.205 208.861,227.314 208.752 C 228.423 208.644,230.321 208.410,231.531 208.233 C 232.741 208.055,234.959 207.815,236.459 207.699 C 237.960 207.583,239.363 207.345,239.576 207.170 C 239.789 206.995,240.871 206.746,241.980 206.616 C 244.032 206.377,250.946 205.411,252.612 205.131 C 253.116 205.046,255.014 204.729,256.829 204.426 C 258.643 204.123,260.623 203.778,261.228 203.659 C 265.437 202.834,267.873 202.285,268.185 202.092 C 268.385 201.969,268.798 201.845,269.104 201.818 C 270.497 201.692,272.033 201.196,271.866 200.926 C 271.709 200.672,272.089 200.502,273.969 199.984 C 274.120 199.942,274.285 199.875,274.335 199.835 C 274.386 199.795,274.840 199.689,275.344 199.599 C 276.645 199.367,281.411 196.367,281.302 195.849 C 281.251 195.611,281.348 195.458,281.518 195.509 C 282.438 195.783,284.834 191.574,285.429 188.634 C 285.817 186.724,286.005 185.826,286.160 185.151 C 286.230 184.849,286.299 183.973,286.315 183.205 C 286.330 182.437,286.484 181.896,286.657 182.003 C 286.830 182.110,287.077 181.088,287.205 179.733 C 287.529 176.297,287.499 174.807,287.110 175.048 C 286.927 175.161,286.861 174.933,286.964 174.543 C 287.213 173.587,285.088 170.662,284.285 170.856 C 284.151 170.889,283.919 170.717,283.770 170.475 C 283.035 169.286,263.234 167.715,262.145 168.759 M250.737 250.191 C 250.659 250.258,247.379 250.416,243.446 250.542 C 235.617 250.792,229.821 251.042,225.298 251.325 C 223.685 251.426,220.550 251.596,218.332 251.703 C 216.114 251.810,213.144 251.970,211.732 252.057 C 210.321 252.145,202.566 252.584,194.500 253.032 C 186.434 253.480,179.753 253.941,179.652 254.055 C 179.551 254.169,178.726 254.282,177.819 254.307 C 176.911 254.332,175.426 254.440,174.519 254.547 C 173.611 254.654,170.559 254.846,167.736 254.974 C 164.913 255.101,161.778 255.278,160.770 255.367 C 159.030 255.520,156.267 255.698,149.221 256.109 C 147.507 256.209,144.785 256.369,143.171 256.464 C 141.558 256.560,138.753 256.725,136.939 256.830 C 135.124 256.935,126.627 257.428,118.057 257.925 C 109.487 258.422,100.212 258.939,97.446 259.075 C 94.680 259.211,92.478 259.421,92.553 259.542 C 92.676 259.740,91.416 259.798,83.138 259.974 C 81.779 260.003,80.747 260.155,80.844 260.313 C 80.942 260.471,80.652 260.586,80.199 260.569 C 79.747 260.551,77.397 260.659,74.977 260.808 C 72.557 260.956,69.340 261.146,67.828 261.229 C 57.463 261.796,25.258 263.614,22.365 263.794 C 20.852 263.889,18.130 264.050,16.315 264.154 C 8.121 264.619,6.215 264.733,3.173 264.941 L -0.069 265.161 0.104 278.410 C 0.200 285.697,0.387 292.236,0.520 292.942 C 1.265 296.879,1.519 297.945,1.831 298.442 C 2.463 299.448,33.988 298.908,56.095 297.512 C 59.258 297.312,63.432 297.099,70.211 296.792 C 72.832 296.673,75.555 296.480,76.260 296.363 C 76.966 296.246,78.575 296.182,79.835 296.221 C 81.095 296.260,82.127 296.157,82.127 295.992 C 82.127 295.827,83.406 295.704,84.968 295.718 C 86.531 295.732,87.892 295.630,87.993 295.490 C 88.093 295.350,90.486 295.128,93.309 294.997 C 96.132 294.865,100.504 294.603,103.025 294.415 C 105.545 294.227,109.588 293.980,112.007 293.866 C 114.427 293.752,117.479 293.579,118.790 293.481 C 120.101 293.383,124.308 293.138,128.139 292.937 C 131.971 292.735,136.508 292.488,138.222 292.387 C 146.575 291.894,154.139 291.461,157.287 291.296 C 159.203 291.195,162.007 291.023,163.520 290.914 C 165.032 290.804,167.589 290.652,169.203 290.576 C 179.299 290.099,182.464 289.882,182.951 289.635 C 183.254 289.481,185.976 289.242,189.001 289.102 C 192.026 288.963,194.913 288.792,195.417 288.722 C 195.921 288.652,198.891 288.490,202.016 288.361 C 205.142 288.232,207.947 288.066,208.249 287.992 C 208.552 287.918,211.192 287.760,214.115 287.642 C 217.039 287.523,220.339 287.351,221.448 287.259 C 222.557 287.166,225.280 286.999,227.498 286.887 C 229.716 286.775,232.686 286.610,234.097 286.522 C 235.509 286.434,240.293 286.182,244.730 285.964 C 249.166 285.745,255.188 285.418,258.112 285.236 C 261.036 285.055,264.459 284.909,265.720 284.911 C 266.980 284.913,268.011 284.778,268.011 284.611 C 268.011 284.444,268.672 284.370,269.479 284.447 C 270.286 284.524,271.235 284.463,271.587 284.312 C 271.939 284.161,272.665 284.072,273.199 284.114 C 273.734 284.156,274.280 284.015,274.412 283.800 C 274.545 283.585,275.053 283.410,275.540 283.410 C 276.975 283.410,281.305 281.622,282.391 280.582 C 285.503 277.601,286.061 251.664,282.972 253.573 C 282.730 253.722,282.665 253.660,282.813 253.421 C 283.087 252.978,281.817 252.128,281.441 252.503 C 281.314 252.630,281.210 252.558,281.210 252.343 C 281.210 251.997,279.598 251.487,276.810 250.952 C 273.328 250.283,251.372 249.642,250.737 250.191 M0.000 348.488 L 0.000 365.536 143.905 365.536 L 287.809 365.536 287.809 348.488 L 287.809 331.439 143.905 331.439 L 0.000 331.439 0.000 348.488 " stroke="none" fill="#5cc49c" fill-rule="evenodd"></path><path id="path1" d="M83.139 260.204 C 83.595 260.292,84.255 260.289,84.606 260.197 C 84.956 260.105,84.583 260.033,83.776 260.037 C 82.970 260.042,82.683 260.117,83.139 260.204 " stroke="none" fill="#60c49c" fill-rule="evenodd"></path><path id="path2" d="M83.139 260.204 C 83.595 260.292,84.255 260.289,84.606 260.197 C 84.956 260.105,84.583 260.033,83.776 260.037 C 82.970 260.042,82.683 260.117,83.139 260.204 " stroke="none" fill="#60c49c" fill-rule="evenodd"></path><path id="path3" d="M83.139 260.204 C 83.595 260.292,84.255 260.289,84.606 260.197 C 84.956 260.105,84.583 260.033,83.776 260.037 C 82.970 260.042,82.683 260.117,83.139 260.204 " stroke="none" fill="#60c49c" fill-rule="evenodd"></path><path id="path4" d="M83.139 260.204 C 83.595 260.292,84.255 260.289,84.606 260.197 C 84.956 260.105,84.583 260.033,83.776 260.037 C 82.970 260.042,82.683 260.117,83.139 260.204 " stroke="none" fill="#60c49c" fill-rule="evenodd"></path></g></svg>