<svg version="1.1" id="Ebene_1" xmlns="http://www.w3.org/2000/svg" x="0" y="0" viewBox="0 0 115.81 100" xml:space="preserve"><path d="M115.81 57.49c0 31.69-19.52 42.51-52.8 42.51S0 89.08 0 57.39 39.76 0 73.03 0s42.78 25.8 42.78 57.49z" fill="#ff5a5f"/><path d="M87.83 35.72a31.778 31.778 0 00-6.56-10.79 29.95 29.95 0 00-10.35-7.29c-8.74-3.48-18.38-3.48-27.15.01-3.93 1.68-7.4 4.13-10.31 7.28a31.82 31.82 0 00-6.55 10.79 38.327 38.327 0 00-2.29 13.32v35.93h9.01V49.02c-.05-3.48.49-6.93 1.6-10.24 1.04-2.99 2.64-5.71 4.75-8.06 2.02-2.27 4.57-4.11 7.36-5.32a24.63 24.63 0 0110.05-1.9c3.52-.06 6.88.59 9.97 1.89 2.83 1.22 5.31 3.01 7.37 5.31 2.05 2.37 3.59 5.08 4.59 8.06 1.11 3.32 1.65 6.78 1.6 10.28v35.93h9.18V49.05c.05-4.57-.72-9.05-2.27-13.33z" fill="#fff"/></svg>