<?xml version="1.0" standalone="no"?>
<!DOCTYPE svg PUBLIC "-//W3C//DTD SVG 20010904//EN"
 "http://www.w3.org/TR/2001/REC-SVG-20010904/DTD/svg10.dtd">
<svg version="1.0" xmlns="http://www.w3.org/2000/svg"
 width="700.000000pt" height="700.000000pt" viewBox="0 0 700.000000 700.000000"
 preserveAspectRatio="xMidYMid meet">
<metadata>
Created by potrace 1.14, written by Peter Selinger 2001-2017
</metadata>
<g transform="translate(0.000000,700.000000) scale(0.100000,-0.100000)"
fill="#000000" stroke="none">
<path d="M3467 5654 c-1 -1 -51 -4 -112 -8 -60 -3 -121 -8 -135 -10 -14 -3
-43 -7 -64 -11 -154 -23 -338 -76 -496 -143 -259 -110 -476 -257 -680 -462
-264 -264 -438 -554 -548 -920 -11 -36 -26 -92 -33 -125 -7 -33 -13 -62 -14
-65 -1 -3 -5 -30 -9 -60 -5 -30 -10 -63 -12 -74 -20 -110 -21 -446 0 -551 2
-11 7 -42 10 -70 18 -130 76 -333 141 -491 71 -171 194 -377 318 -529 68 -83
247 -258 332 -324 44 -34 85 -65 91 -70 64 -52 277 -169 404 -224 74 -31 235
-87 250 -86 3 0 18 -4 33 -10 15 -6 40 -13 55 -16 15 -3 38 -7 52 -10 69 -15
121 -24 175 -31 33 -3 74 -8 90 -10 43 -5 355 -5 385 0 14 3 48 7 75 11 93 11
120 16 205 36 124 29 225 61 345 109 138 56 336 169 471 271 135 101 320 285
416 414 21 28 41 55 46 60 62 76 204 338 246 455 56 154 99 303 111 390 4 24
8 47 10 50 2 3 6 34 10 70 4 36 9 79 11 95 5 44 5 346 0 375 -3 14 -7 50 -10
82 -12 112 -55 300 -101 433 -192 557 -625 1028 -1162 1263 -191 84 -360 132
-583 166 -66 10 -316 26 -323 20z"/>
</g>
</svg>
