<?xml version="1.0" standalone="no"?>
<!DOCTYPE svg PUBLIC "-//W3C//DTD SVG 20010904//EN"
 "http://www.w3.org/TR/2001/REC-SVG-20010904/DTD/svg10.dtd">
<svg version="1.0" xmlns="http://www.w3.org/2000/svg"
 width="1025.000000pt" height="1025.000000pt" viewBox="0 0 1025.000000 1025.000000"
 preserveAspectRatio="xMidYMid meet">
<metadata>
Created by potrace 1.11, written by Peter Selinger 2001-2013
</metadata>
<g transform="translate(0.000000,1025.000000) scale(0.100000,-0.100000)"
fill="#000000" stroke="none">
<path d="M4782 9027 c3 -15 1 -30 -3 -33 -5 -3 -4 -14 1 -25 6 -11 7 -19 1
-19 -5 0 -6 -14 -1 -34 4 -19 4 -40 -1 -47 -4 -7 -3 -19 3 -26 7 -9 7 -13 0
-13 -6 0 -7 -13 -2 -35 4 -20 4 -38 -1 -41 -5 -3 -5 -13 1 -25 6 -10 7 -19 3
-19 -4 0 -6 -88 -3 -196 3 -108 2 -201 -2 -207 -4 -6 -2 -17 4 -24 7 -9 7 -13
0 -13 -6 0 -7 -13 -2 -35 4 -19 4 -37 0 -40 -5 -3 -5 -19 0 -35 6 -21 5 -30
-3 -30 -8 0 -8 -3 0 -11 7 -7 8 -21 3 -39 -5 -18 -4 -32 3 -39 8 -8 7 -11 -2
-11 -10 0 -11 -3 -3 -13 7 -8 7 -18 2 -27 -5 -9 -5 -19 2 -27 7 -9 7 -13 0
-13 -6 0 -7 -13 -2 -35 4 -20 4 -38 -1 -41 -5 -3 -5 -13 1 -25 6 -11 7 -19 1
-19 -5 0 -6 -14 -1 -34 4 -19 4 -40 -1 -47 -4 -7 -3 -19 3 -26 6 -7 7 -13 2
-13 -5 0 -7 -87 -4 -196 3 -108 2 -198 -3 -201 -4 -2 -2 -13 3 -24 6 -11 7
-19 1 -19 -5 0 -6 -14 -1 -34 4 -19 4 -40 -1 -47 -4 -7 -3 -19 3 -26 7 -9 7
-13 0 -13 -6 0 -7 -13 -2 -35 4 -20 4 -38 -1 -41 -5 -3 -5 -13 1 -25 6 -11 7
-19 1 -19 -5 0 -6 -14 -1 -34 4 -19 4 -40 -1 -47 -4 -7 -3 -19 3 -26 7 -9 7
-13 0 -13 -6 0 -7 -13 -2 -35 4 -20 4 -38 -1 -41 -5 -3 -5 -13 1 -25 6 -10 7
-19 3 -19 -4 0 -6 -88 -3 -196 3 -108 2 -201 -2 -207 -4 -6 -2 -17 4 -24 7 -9
7 -13 0 -13 -6 0 -7 -13 -2 -35 4 -19 4 -37 0 -40 -5 -3 -5 -19 0 -35 6 -21 5
-30 -3 -30 -8 0 -8 -3 0 -11 7 -7 8 -21 3 -39 -5 -18 -4 -32 3 -39 8 -8 7 -11
-2 -11 -10 0 -11 -3 -3 -13 7 -8 7 -18 2 -27 -5 -9 -5 -19 2 -27 7 -9 7 -13 0
-13 -6 0 -7 -13 -2 -35 4 -20 4 -38 -1 -41 -5 -3 -5 -13 1 -25 6 -11 7 -19 1
-19 -5 0 -6 -14 -1 -34 4 -19 4 -40 -1 -47 -4 -7 -3 -19 3 -26 6 -7 7 -13 2
-13 -9 0 -9 -181 -1 -205 4 -9 0 -11 -16 -6 -34 10 -222 105 -225 114 -2 4 -7
5 -12 2 -5 -3 -16 2 -24 11 -9 8 -16 13 -16 10 0 -4 -37 13 -82 36 -46 23 -86
41 -90 40 -3 -1 -12 5 -18 13 -7 8 -17 15 -23 15 -18 0 -87 33 -87 42 0 4 -6
8 -14 8 -7 0 -91 38 -185 85 -94 47 -176 85 -181 85 -6 0 -10 5 -10 10 0 6 -3
9 -7 8 -5 -1 -56 21 -115 50 -59 29 -111 52 -115 52 -3 0 -14 7 -24 16 -9 8
-23 17 -31 18 -20 4 -72 30 -79 39 -3 5 -10 9 -15 9 -15 1 -59 22 -65 31 -3 5
-10 8 -15 8 -5 0 -76 33 -159 73 -82 40 -160 76 -172 80 -13 4 -23 12 -23 17
0 5 -6 9 -13 9 -6 0 -111 49 -233 109 -121 59 -230 112 -242 115 -12 4 -22 12
-22 18 0 6 -3 9 -6 5 -3 -3 -58 21 -122 53 -65 31 -216 105 -337 164 -121 59
-232 113 -247 121 -37 21 -39 20 -38 -22 1 -33 2 -1304 1 -1358 -1 -17 0 -119
0 -165 0 -38 0 -787 0 -800 -1 -13 0 -119 0 -160 0 -8 0 -388 -1 -844 -1 -455
0 -830 2 -831 2 -2 55 -28 118 -58 63 -30 212 -102 332 -160 119 -58 226 -108
237 -112 12 -3 21 -11 21 -16 0 -5 3 -8 8 -7 7 3 29 -7 307 -142 344 -167 478
-230 486 -230 5 0 9 -5 9 -12 0 -6 2 -9 5 -6 3 3 52 -17 108 -45 56 -28 104
-51 107 -52 25 -8 126 -59 131 -67 3 -5 8 -9 10 -8 8 3 58 -20 249 -113 107
-52 242 -117 300 -145 58 -27 186 -89 285 -137 99 -48 243 -118 320 -155 77
-37 201 -97 275 -133 74 -37 136 -64 139 -62 2 3 4 866 3 1917 0 1052 1 1923
4 1935 2 14 19 30 42 41 65 33 107 57 113 65 3 5 9 8 13 8 3 -1 32 14 63 31
63 36 105 59 180 99 48 25 132 72 203 112 19 11 64 35 100 55 36 19 79 42 95
52 29 17 151 83 217 118 18 9 35 19 38 22 3 3 34 20 70 39 36 19 73 41 83 49
9 8 17 12 17 8 0 -3 18 5 40 19 22 14 42 25 45 25 3 0 23 11 44 24 21 14 42
22 45 19 3 -4 6 -1 6 5 0 7 6 12 14 12 7 0 19 7 26 15 7 8 21 15 31 15 11 0
19 4 19 8 0 5 19 17 43 28 23 10 44 22 47 26 3 4 17 12 30 18 39 17 238 127
258 143 6 5 12 6 12 1 0 -5 4 -4 8 2 4 6 48 32 97 59 50 27 104 56 120 65 57
32 170 93 220 119 28 14 52 29 55 32 3 3 23 14 45 25 22 10 42 20 45 24 3 3
30 18 60 34 30 16 78 43 105 58 28 16 62 34 78 41 15 6 27 15 27 18 0 4 14 10
30 14 17 4 30 10 30 15 0 4 12 13 28 19 15 6 41 19 57 28 28 17 125 71 270
151 33 18 84 45 113 59 59 31 64 45 25 66 -75 38 -149 81 -154 90 -3 5 -8 8
-10 7 -8 -4 -59 24 -59 32 0 4 -9 8 -20 8 -11 0 -20 5 -20 10 0 6 -4 10 -9 10
-12 0 -174 92 -182 103 -3 5 -10 9 -15 9 -9 0 -59 27 -147 80 -26 15 -50 28
-52 28 -3 0 -24 12 -48 27 -23 15 -44 28 -47 28 -3 0 -12 5 -20 10 -38 25 -77
46 -92 51 -10 4 -18 9 -18 13 0 4 -16 13 -35 21 -19 8 -35 17 -35 22 0 4 -6 8
-14 8 -7 0 -30 11 -50 25 -20 13 -36 22 -36 19 0 -3 -13 4 -28 15 -15 10 -55
34 -87 52 -33 18 -63 36 -66 42 -3 5 -8 7 -10 5 -4 -3 -209 111 -219 122 -5 5
-101 58 -137 75 -13 5 -23 13 -23 18 0 4 -5 7 -11 7 -6 0 -37 15 -68 34 -52
31 -88 52 -196 112 -22 12 -80 45 -130 74 -49 29 -119 68 -155 88 -36 19 -77
43 -92 54 -14 10 -28 18 -31 18 -5 0 -305 169 -337 190 -8 5 -30 17 -47 26
-18 9 -33 20 -33 23 0 4 -6 8 -13 8 -6 0 -31 12 -54 26 -24 15 -45 27 -49 27
-3 0 -18 8 -32 19 -15 10 -63 37 -107 61 -44 24 -82 46 -85 49 -3 3 -18 13
-35 21 -16 8 -53 29 -82 47 -29 18 -54 33 -57 33 -5 0 -71 38 -246 140 -8 5
-49 28 -90 51 -41 23 -86 49 -99 58 -24 15 -24 15 -19 -12z m554 -739 c6 -4
31 -19 55 -32 24 -13 60 -33 79 -45 19 -11 42 -24 50 -28 8 -4 42 -23 75 -42
116 -68 140 -82 168 -94 15 -6 27 -15 27 -19 0 -4 4 -8 9 -8 9 0 176 -93 231
-128 14 -9 27 -17 30 -17 3 0 37 -19 75 -41 184 -108 267 -154 277 -154 4 0 8
-4 8 -10 0 -5 4 -10 9 -10 5 0 80 -41 167 -91 88 -50 182 -104 209 -119 28
-15 90 -51 138 -79 49 -28 92 -51 97 -51 5 0 10 -3 12 -7 2 -5 21 -17 43 -29
49 -26 181 -101 215 -123 14 -8 28 -15 32 -14 3 2 12 -4 18 -12 7 -8 16 -15
20 -15 7 0 167 -91 230 -130 8 -5 34 -19 58 -32 71 -37 71 -42 -5 -80 -37 -18
-70 -36 -73 -40 -3 -4 -21 -14 -40 -23 -19 -9 -53 -26 -75 -38 -60 -35 -196
-109 -230 -126 -16 -8 -32 -18 -35 -22 -6 -8 -62 -32 -69 -29 -2 1 -7 -2 -10
-7 -3 -6 -37 -27 -76 -48 -155 -84 -181 -98 -192 -108 -7 -5 -13 -6 -13 -1 0
5 -4 4 -8 -1 -4 -6 -25 -19 -47 -30 -22 -11 -42 -22 -45 -26 -3 -3 -22 -13
-42 -22 -20 -10 -40 -22 -43 -27 -4 -6 -11 -8 -16 -5 -5 4 -9 1 -9 -5 0 -6 -4
-8 -10 -5 -5 3 -10 2 -10 -4 0 -9 -43 -28 -47 -20 -1 2 -12 -5 -25 -17 -13
-12 -45 -32 -73 -45 -27 -13 -51 -27 -53 -31 -2 -5 -8 -8 -12 -8 -5 0 -32 -13
-60 -30 -28 -16 -57 -30 -65 -30 -7 0 -15 -4 -17 -8 -4 -11 -138 -84 -138 -76
0 4 -7 -1 -15 -12 -8 -10 -15 -14 -15 -9 0 6 -3 6 -8 -1 -4 -6 -20 -17 -37
-26 -74 -37 -169 -90 -205 -113 -8 -5 -21 -10 -28 -11 -8 -2 -21 -9 -30 -16
-10 -8 -35 -23 -57 -33 -22 -11 -56 -29 -75 -41 -19 -11 -78 -43 -130 -71 -52
-28 -124 -67 -160 -87 -36 -20 -90 -49 -120 -64 -30 -15 -56 -30 -58 -34 -2
-5 -7 -8 -11 -8 -4 0 -8 643 -8 1430 l0 1430 76 -42 c42 -22 81 -45 87 -50z
m-3004 -1963 c14 -8 33 -15 41 -15 9 0 17 -4 19 -8 3 -8 119 -65 127 -62 2 1
7 -2 10 -7 5 -7 73 -43 91 -48 17 -5 112 -54 124 -64 8 -7 20 -10 26 -6 5 3
10 3 10 -2 0 -9 48 -33 66 -33 7 0 14 -3 16 -7 3 -8 10 -12 353 -179 121 -58
326 -158 455 -221 129 -63 309 -151 400 -194 91 -44 174 -85 185 -91 11 -6 27
-15 35 -19 8 -5 121 -60 251 -123 l237 -114 4 -47 c2 -25 0 -52 -4 -58 -4 -6
-2 -17 4 -24 7 -9 7 -13 0 -13 -6 0 -7 -13 -2 -35 4 -20 4 -38 -1 -41 -5 -3
-5 -13 1 -25 6 -10 7 -19 3 -19 -4 0 -6 -88 -3 -196 3 -108 2 -201 -2 -207 -4
-6 -2 -17 4 -24 7 -9 7 -13 0 -13 -6 0 -7 -13 -2 -35 4 -19 4 -37 0 -40 -5 -3
-5 -19 0 -35 6 -21 5 -30 -3 -30 -8 0 -8 -3 0 -11 7 -7 8 -21 3 -39 -5 -18 -4
-32 3 -39 8 -8 7 -11 -2 -11 -10 0 -11 -3 -3 -13 7 -8 7 -18 2 -27 -5 -9 -5
-19 2 -27 7 -9 7 -13 0 -13 -6 0 -7 -13 -2 -35 4 -20 4 -38 -1 -41 -5 -3 -5
-13 1 -25 6 -11 7 -19 1 -19 -5 0 -6 -14 -1 -34 4 -19 4 -40 -1 -47 -4 -7 -3
-19 3 -26 6 -7 7 -13 2 -13 -5 0 -7 -87 -4 -196 3 -108 2 -198 -3 -201 -4 -2
-2 -13 3 -24 6 -11 7 -19 1 -19 -5 0 -6 -14 -1 -34 4 -19 4 -40 -1 -47 -4 -7
-3 -19 3 -26 7 -9 7 -13 0 -13 -6 0 -7 -13 -2 -35 4 -20 4 -38 -1 -41 -5 -3
-5 -13 1 -25 6 -11 7 -19 1 -19 -5 0 -6 -14 -1 -34 4 -19 4 -40 -1 -47 -4 -7
-3 -19 3 -26 7 -9 7 -13 0 -13 -6 0 -7 -13 -2 -35 4 -20 4 -38 -1 -41 -5 -3
-5 -13 1 -25 6 -10 7 -19 3 -19 -4 0 -6 -88 -3 -196 3 -108 2 -201 -2 -207 -4
-6 -2 -17 4 -24 7 -9 7 -13 0 -13 -6 0 -7 -13 -2 -35 4 -19 4 -37 0 -40 -5 -3
-5 -19 0 -35 6 -21 5 -30 -3 -30 -8 0 -8 -3 0 -11 7 -7 8 -21 3 -39 -5 -18 -4
-32 3 -39 8 -8 7 -11 -2 -11 -10 0 -11 -3 -3 -13 7 -8 7 -18 2 -27 -5 -9 -5
-19 2 -27 7 -9 7 -13 0 -13 -6 0 -7 -13 -2 -35 4 -20 4 -38 -1 -41 -5 -3 -5
-13 1 -25 6 -11 7 -19 1 -19 -5 0 -6 -14 -1 -34 4 -19 4 -40 -1 -47 -4 -7 -3
-19 3 -26 6 -7 6 -13 2 -13 -5 0 -8 -20 -6 -45 7 -76 2 -79 -75 -41 -37 19
-129 63 -203 99 -74 35 -198 95 -275 132 -77 37 -198 96 -270 130 -71 34 -195
94 -275 132 -80 39 -201 98 -270 131 -136 65 -342 164 -570 275 -269 129 -455
219 -457 219 -1 0 -62 30 -135 66 l-133 67 -1 1650 c0 908 1 1653 3 1657 3 7
133 -52 215 -97z"/>
</g>
</svg>
