<?xml version="1.0" standalone="no"?>
<!DOCTYPE svg PUBLIC "-//W3C//DTD SVG 20010904//EN"
 "http://www.w3.org/TR/2001/REC-SVG-20010904/DTD/svg10.dtd">
<svg version="1.0" xmlns="http://www.w3.org/2000/svg"
 width="115.000000pt" height="115.000000pt" viewBox="0 0 115.000000 115.000000"
 preserveAspectRatio="xMidYMid meet">
<metadata>
Created by potrace 1.11, written by Peter Selinger 2001-2013
</metadata>
<g transform="translate(0.000000,115.000000) scale(0.100000,-0.100000)"
fill="#000000" stroke="none">
<path d="M250 1018 c-50 -68 -96 -130 -103 -139 -58 -75 -57 -69 -57 -220 0
-155 -4 -141 89 -297 17 -29 31 -54 31 -56 0 -2 16 -30 35 -62 19 -32 35 -64
35 -72 0 -8 -21 -37 -46 -65 -52 -58 -54 -56 63 -82 l82 -18 278 158 c153 87
284 163 291 170 6 6 34 80 60 165 l48 155 -36 143 c-20 78 -34 145 -31 147 2
3 0 5 -6 5 -6 0 -22 -15 -36 -32 -14 -18 -40 -49 -59 -69 -18 -20 -58 -65 -88
-99 -30 -35 -61 -69 -68 -77 -15 -14 -32 -17 -32 -5 0 4 -9 19 -19 32 -73 92
-213 274 -246 320 -22 30 -42 57 -45 60 -3 3 -15 18 -27 33 l-22 29 -91 -124z"/>
</g>
</svg>
