<?xml version="1.0" standalone="no"?>
<!DOCTYPE svg PUBLIC "-//W3C//DTD SVG 20010904//EN"
 "http://www.w3.org/TR/2001/REC-SVG-20010904/DTD/svg10.dtd">
<svg version="1.0" xmlns="http://www.w3.org/2000/svg"
 width="256.000000pt" height="256.000000pt" viewBox="0 0 256.000000 256.000000"
 preserveAspectRatio="xMidYMid meet">
<metadata>
Created by potrace 1.14, written by Peter Selinger 2001-2017
</metadata>
<g transform="translate(0.000000,256.000000) scale(0.100000,-0.100000)"
fill="#000000" stroke="none">
<path d="M648 2533 c-9 -2 -30 -25 -46 -51 -36 -57 -169 -283 -195 -332 -11
-19 -28 -47 -38 -62 -11 -14 -19 -28 -19 -31 0 -3 -47 -84 -105 -182 -58 -97
-105 -181 -105 -186 0 -5 -4 -9 -10 -9 -5 0 -10 -4 -10 -9 0 -5 -27 -55 -60
-110 l-60 -101 0 -364 0 -364 102 -58 c131 -76 144 -83 214 -122 33 -17 66
-37 74 -42 58 -39 878 -502 890 -502 8 -1 38 12 66 29 27 17 70 42 95 55 148
85 262 150 291 168 18 11 39 23 47 26 7 4 111 63 230 132 119 68 234 134 256
146 22 13 56 32 75 43 19 11 77 44 128 73 l92 52 0 364 0 363 -166 283 c-92
156 -228 387 -303 514 -75 128 -143 242 -152 255 -21 30 -68 29 -116 -3 -79
-53 -532 -318 -543 -318 -6 0 -143 79 -305 175 -161 96 -297 174 -302 174 -4
-1 -16 -3 -25 -6z m800 -1163 c83 -47 152 -88 152 -91 0 -4 -29 -56 -64 -117
-59 -101 -100 -173 -130 -227 -6 -11 -19 -31 -28 -45 -9 -14 -32 -54 -52 -90
-39 -73 -51 -82 -66 -48 -6 13 -20 39 -32 58 -11 19 -31 53 -43 75 -13 22 -62
108 -111 190 -121 208 -116 198 -101 212 6 6 37 25 67 42 30 16 93 52 140 80
47 27 92 49 101 48 9 -1 84 -40 167 -87z"/>
</g>
</svg>
