<?xml version="1.0" standalone="no"?>
<!DOCTYPE svg PUBLIC "-//W3C//DTD SVG 20010904//EN"
 "http://www.w3.org/TR/2001/REC-SVG-20010904/DTD/svg10.dtd">
<svg version="1.0" xmlns="http://www.w3.org/2000/svg"
 width="400.000000pt" height="400.000000pt" viewBox="0 0 400.000000 400.000000"
 preserveAspectRatio="xMidYMid meet">
<metadata>
Created by potrace 1.11, written by Peter Selinger 2001-2013
</metadata>
<g transform="translate(0.000000,400.000000) scale(0.100000,-0.100000)"
fill="#000000" stroke="none">
<path d="M577 3703 c-3 -4 -53 -235 -112 -513 -59 -278 -113 -532 -121 -565
-7 -33 -14 -68 -14 -77 0 -17 44 -18 788 -18 l787 0 42 197 c40 187 45 199 77
232 27 27 44 35 83 38 89 9 87 11 382 -430 147 -222 276 -417 285 -434 22 -44
20 -94 -6 -133 -20 -29 -800 -648 -883 -701 -62 -39 -154 -15 -195 53 -26 43
-25 59 10 221 17 76 30 142 30 147 0 12 -1567 14 -1574 2 -3 -5 -38 -159 -77
-343 -67 -309 -73 -343 -73 -454 0 -105 3 -129 26 -193 37 -104 83 -176 158
-252 76 -75 147 -120 252 -158 l73 -27 1452 -2 c799 0 1453 0 1453 2 0 6 21
110 55 268 l35 169 0 1478 0 1478 -27 7 c-38 11 -2900 18 -2906 8z"/>
</g>
</svg>
