<?xml version="1.0" standalone="no"?>
<!DOCTYPE svg PUBLIC "-//W3C//DTD SVG 20010904//EN"
 "http://www.w3.org/TR/2001/REC-SVG-20010904/DTD/svg10.dtd">
<svg version="1.0" xmlns="http://www.w3.org/2000/svg"
 width="1000.000000pt" height="1000.000000pt" viewBox="0 0 1000.000000 1000.000000"
 preserveAspectRatio="xMidYMid meet">
<metadata>
Created by potrace 1.14, written by Peter Selinger 2001-2017
</metadata>
<g transform="translate(0.000000,1000.000000) scale(0.100000,-0.100000)"
fill="#000000" stroke="none">
<path d="M2825 9804 c-49 -11 -104 -50 -127 -88 l-23 -41 -5 -1260 -5 -1261
-1163 1 -1162 0 0 -537 c0 -423 3 -538 13 -539 6 0 531 -1 1165 -1 l1152 -1 0
-658 0 -659 -22 -1 c-13 0 -537 0 -1165 -1 l-1143 0 0 -538 0 -538 1161 0
c638 0 1163 -2 1165 -5 2 -2 4 -734 4 -1628 0 -1255 3 -1633 13 -1664 15 -51
71 -107 122 -122 60 -19 856 -17 909 2 51 18 92 59 113 113 16 42 17 162 17
1673 l0 1629 198 1 c257 0 1308 0 1397 0 l68 -1 79 -93 c43 -50 81 -94 84 -97
3 -3 49 -57 102 -120 130 -157 557 -661 577 -682 9 -9 21 -23 26 -30 20 -25
100 -123 105 -128 10 -10 76 -86 120 -140 25 -29 74 -88 110 -130 36 -42 85
-100 110 -130 25 -29 50 -58 55 -64 6 -6 71 -83 144 -171 74 -88 151 -178 170
-200 20 -23 54 -63 76 -90 22 -27 81 -97 130 -155 50 -58 151 -177 225 -265
74 -88 139 -165 145 -171 5 -6 29 -33 51 -60 206 -244 404 -478 442 -523 54
-62 127 -119 198 -152 l49 -24 487 -3 c325 -2 500 1 527 8 57 15 98 60 107
116 12 85 -8 122 -185 329 -47 55 -96 111 -107 125 -12 14 -57 66 -99 115 -86
100 -97 112 -175 205 -30 36 -57 67 -60 70 -3 3 -28 32 -55 65 -28 33 -55 65
-61 71 -5 6 -30 35 -55 64 -24 28 -53 62 -64 74 -11 12 -40 46 -65 76 -25 30
-72 86 -106 124 -33 39 -238 278 -454 531 -216 253 -407 476 -424 496 -17 20
-51 60 -76 89 -53 63 -412 484 -444 520 -12 14 -79 93 -150 175 -70 83 -148
173 -171 200 -24 28 -52 62 -63 76 l-20 25 31 2 c18 2 43 5 57 7 14 2 70 11
125 20 55 9 109 17 120 19 27 5 96 18 115 21 29 6 235 56 285 69 460 126 894
346 1181 601 106 93 280 282 337 365 118 172 216 346 284 506 40 95 111 320
137 436 45 201 60 302 85 573 8 90 6 632 -2 670 -3 11 -8 56 -12 100 -22 251
-91 575 -170 790 -172 476 -435 836 -820 1125 -394 295 -992 519 -1640 615
-60 9 -121 18 -135 20 -14 2 -50 6 -81 9 -31 3 -72 8 -90 10 -39 6 -109 12
-224 21 -44 4 -105 9 -135 12 -66 6 -3386 13 -3415 7z m3180 -1078 c148 -7
172 -9 310 -21 124 -10 146 -13 395 -51 88 -13 324 -69 425 -100 527 -166 853
-428 1045 -838 71 -152 139 -378 156 -517 3 -30 8 -57 10 -60 18 -31 26 -577
11 -714 -7 -63 -25 -184 -31 -210 -2 -5 -6 -28 -10 -50 -14 -73 -65 -239 -96
-315 -125 -303 -318 -533 -595 -708 -144 -90 -454 -209 -670 -257 -86 -19
-280 -55 -325 -60 -30 -4 -57 -8 -60 -10 -3 -2 -41 -6 -85 -10 -44 -4 -87 -9
-96 -10 -17 -3 -124 -13 -219 -20 -202 -15 -1003 -21 -2141 -16 l-185 1 0 659
0 659 816 0 c448 0 826 1 841 1 l25 1 0 538 0 537 -841 0 -840 0 -1 775 c-1
426 0 782 2 790 3 13 123 15 1006 14 552 -1 1071 -4 1153 -8z"/>
</g>
</svg>
