<svg width="32" height="32" viewBox="0 0 32 32" fill="none" xmlns="http://www.w3.org/2000/svg">
<g clip-path="url(#clip0_144_338)">
<path d="M9.46764 12.1498C8.55245 10.9737 8.55245 9.37014 9.46764 8.19407L15.844 0L22.4803 8.13347C23.4599 9.33403 23.4599 11.0098 22.4803 12.2104L15.844 20.3438L9.46764 12.1498Z" fill="#6D45FF"/>
<path d="M0.686389 23.8057C-0.228796 22.6296 -0.228796 21.026 0.686389 19.85L6.50959 12.3668C6.78691 12.0104 7.34713 12.0044 7.63294 12.3547L13.6991 19.7894C14.6787 20.9899 14.6787 22.6657 13.6991 23.8663L7.06279 31.9997L0.686389 23.8057Z" fill="#6D45FF"/>
<path d="M18.2528 23.806C17.3376 22.6299 17.3376 21.0264 18.2528 19.8503L24.6292 11.6562L31.2655 19.7897C32.2451 20.9903 32.2451 22.666 31.2655 23.8666L24.6292 32.0001L18.2528 23.806Z" fill="#6D45FF"/>
</g>
<defs>
<clipPath id="clip0_144_338">
<rect width="32" height="32" fill="white"/>
</clipPath>
</defs>
</svg>
