<?xml version="1.0" encoding="UTF-8" standalone="no"?>
<svg viewBox="0 0 132 132" version="1.1" xmlns="http://www.w3.org/2000/svg" xmlns:xlink="http://www.w3.org/1999/xlink">
    <g id="Page-1" stroke="none" stroke-width="1" fill="none" fill-rule="evenodd">
        <g id="spreds-logo-black-rgb" transform="translate(10.000000, -50.000000)" fill="#000000" fill-rule="nonzero">
            <path d="M109.16,71 C109.164045,78.5481742 104.620248,85.3553558 97.6478047,88.2467203 C90.6753617,91.1380848 82.6477234,89.5440837 77.3089271,84.2081485 C71.9701308,78.8722134 70.3718267,70.8454307 73.2594533,63.8714388 C76.1470798,56.8974469 82.9518247,52.3500011 90.5,52.35 C100.799446,52.3555107 109.148968,60.7005582 109.16,71 Z M18.66,142.48 C8.35436657,142.48 -5.84335126e-15,150.834367 -7.10542736e-15,161.14 C-8.36750346e-15,171.445633 8.35436657,179.8 18.66,179.8 C28.9656334,179.8 37.32,171.445633 37.32,161.14 C37.3144792,150.838272 28.9617295,142.489999 18.66,142.49 L18.66,142.48 Z M83.12,178.1 C83.12,178.312173 83.2042855,178.515656 83.3543146,178.665685 C83.5043437,178.815715 83.7078268,178.9 83.92,178.9 C84.0032058,178.90652 84.0867942,178.90652 84.17,178.9 C91.26,176.51 110.38,168.1 110.38,146.9 C110.38,125.9 100.54,116 67.16,101.71 C42.23,91 18.35,84.51 18.35,69 C18.35,60.35 21.6,56.47 23.74,54.69 C23.9154495,54.530254 24.019846,54.3070616 24.03,54.07 C24.0326745,53.861404 23.9516784,53.6604292 23.8051092,53.5119808 C23.6585399,53.3635325 23.4586132,53.2799829 23.25,53.28 C23.1221509,53.27781 22.9955245,53.3051887 22.88,53.36 C16.1,56 0,64.44 0,83.82 C0,108.9 17.84,116.82 45,128.63 C66.06,137.79 90.9,147.94 90.9,161.36 C90.9,170.81 86.64,175.49 83.49,177.44 C83.2609033,177.586021 83.1215688,177.838329 83.12,178.11 L83.12,178.1 Z" id="Shape"></path>
        </g>
    </g>
</svg>