<?xml version="1.0" standalone="no"?>
<!DOCTYPE svg PUBLIC "-//W3C//DTD SVG 20010904//EN"
 "http://www.w3.org/TR/2001/REC-SVG-20010904/DTD/svg10.dtd">
<svg version="1.0" xmlns="http://www.w3.org/2000/svg"
 width="1939.000000pt" height="1939.000000pt" viewBox="0 0 1939.000000 1939.000000"
 preserveAspectRatio="xMidYMid meet">
<metadata>
Created by potrace 1.14, written by Peter Selinger 2001-2017
</metadata>
<g transform="translate(0.000000,1939.000000) scale(0.100000,-0.100000)"
fill="#000000" stroke="none">
<path d="M14098 19384 c-2 -1 -41 -5 -88 -8 -47 -3 -96 -8 -110 -10 -14 -3
-45 -7 -70 -10 -211 -27 -503 -108 -695 -191 -133 -58 -231 -106 -321 -156
-27 -15 -79 -52 -144 -102 -85 -66 -2288 -1714 -2320 -1736 -19 -13 -37 -26
-40 -30 -3 -3 -75 -58 -160 -121 -85 -63 -171 -127 -190 -142 -19 -15 -69 -53
-110 -83 -41 -31 -86 -64 -100 -75 -14 -10 -72 -54 -130 -97 -58 -42 -107 -80
-110 -83 -3 -3 -21 -17 -40 -30 -19 -14 -42 -30 -50 -37 -8 -6 -386 -290 -840
-629 -1549 -1159 -2605 -1950 -2664 -1994 -32 -25 -71 -54 -87 -66 -16 -11
-41 -30 -56 -42 -15 -11 -401 -300 -858 -642 -456 -341 -837 -626 -845 -633
-8 -6 -67 -50 -130 -97 -63 -47 -122 -90 -130 -97 -13 -11 -74 -56 -300 -225
-30 -23 -116 -87 -190 -142 -74 -55 -144 -108 -154 -118 -11 -10 -23 -18 -26
-18 -4 0 -18 -10 -31 -21 -13 -12 -35 -29 -49 -38 -44 -29 -184 -146 -235
-197 -151 -151 -288 -376 -360 -589 -29 -88 -28 -82 -48 -180 -44 -207 -39
-474 13 -680 6 -22 12 -47 14 -55 2 -8 17 -51 34 -95 141 -382 417 -688 777
-859 78 -38 210 -87 271 -101 138 -33 213 -44 348 -50 98 -5 229 -15 253 -19
10 -2 58 -7 107 -11 50 -4 97 -8 105 -10 9 -1 52 -6 96 -9 44 -4 91 -9 105
-11 14 -2 63 -6 110 -10 47 -3 96 -7 110 -9 14 -3 57 -7 95 -11 39 -3 88 -8
110 -10 22 -3 66 -7 98 -10 32 -3 77 -7 100 -10 23 -2 71 -7 107 -10 36 -3 86
-8 111 -11 60 -6 120 -12 194 -18 99 -9 277 -26 320 -31 22 -3 92 -9 155 -15
63 -6 131 -12 150 -15 19 -3 64 -7 100 -10 36 -3 81 -7 100 -9 19 -3 72 -7
117 -11 46 -3 91 -8 100 -9 10 -2 54 -7 98 -10 44 -4 91 -9 105 -11 14 -2 57
-6 95 -10 39 -3 90 -8 115 -10 25 -2 74 -7 110 -10 36 -3 75 -7 85 -9 11 -2
60 -7 109 -11 50 -4 97 -8 105 -10 9 -1 52 -6 96 -9 44 -4 98 -9 120 -11 22
-2 66 -7 98 -10 127 -12 173 -16 202 -20 17 -2 64 -7 105 -10 41 -3 89 -8 105
-10 17 -2 68 -6 115 -10 47 -4 92 -8 100 -10 8 -2 53 -6 100 -10 47 -4 99 -8
115 -11 17 -2 59 -6 95 -9 36 -3 88 -8 115 -11 28 -2 77 -7 110 -10 33 -3 71
-7 85 -9 14 -2 61 -7 105 -10 44 -4 91 -8 105 -10 14 -2 57 -6 95 -10 39 -3
88 -8 110 -10 22 -2 72 -7 110 -11 39 -4 84 -8 100 -10 17 -1 62 -6 100 -9 39
-3 88 -8 110 -11 22 -2 65 -6 95 -9 30 -3 80 -8 110 -11 30 -4 69 -8 85 -9 17
-2 32 -4 35 -4 3 -1 -51 -25 -120 -55 -69 -29 -147 -63 -175 -76 -62 -28 -77
-35 -240 -105 -71 -30 -139 -60 -150 -65 -29 -13 -118 -52 -205 -90 -92 -40
-149 -65 -220 -97 -30 -14 -64 -29 -76 -33 -18 -7 -674 -293 -779 -340 -22
-10 -74 -32 -115 -50 -41 -18 -95 -41 -119 -52 -24 -11 -132 -58 -240 -104
-212 -92 -245 -106 -306 -134 -78 -36 -316 -140 -320 -140 -2 0 -32 -13 -67
-29 -35 -16 -115 -52 -178 -79 -262 -113 -508 -220 -550 -240 -25 -11 -83 -37
-130 -57 -115 -49 -150 -65 -185 -81 -16 -8 -158 -70 -315 -138 -157 -68 -301
-131 -320 -139 -19 -8 -51 -22 -70 -30 -19 -9 -78 -34 -130 -57 -52 -23 -176
-77 -275 -120 -99 -43 -205 -89 -235 -103 -30 -14 -197 -86 -370 -161 -173
-76 -335 -146 -360 -158 -25 -11 -91 -40 -146 -64 -410 -175 -870 -604 -1151
-1074 -75 -125 -220 -420 -207 -420 2 0 -2 -12 -10 -28 -21 -41 -83 -232 -111
-341 -27 -107 -56 -264 -69 -371 -32 -264 -24 -609 19 -831 3 -13 7 -41 11
-64 13 -88 100 -403 133 -480 5 -11 26 -60 46 -110 38 -93 154 -320 186 -367
11 -14 19 -31 19 -37 0 -6 5 -11 10 -11 6 0 10 -5 10 -11 0 -18 134 -205 231
-321 356 -427 853 -756 1391 -918 170 -52 295 -78 498 -107 120 -17 696 -9
800 12 13 2 42 7 65 10 50 7 313 71 374 91 93 31 216 77 225 86 6 4 16 8 23 8
25 0 357 168 373 189 3 4 111 86 240 182 639 478 1048 784 1075 804 28 22 939
704 2135 1599 300 224 556 416 570 426 88 66 344 258 366 275 15 11 104 78
198 148 94 71 197 148 230 172 32 24 70 53 85 64 37 28 2097 1570 2407 1802
142 106 264 197 269 202 6 4 195 146 421 315 698 522 1518 1136 1534 1149 8 6
78 59 156 117 157 117 300 252 367 346 148 209 248 431 283 628 2 12 6 34 9
50 40 218 15 553 -54 727 -5 11 -14 38 -21 60 -31 96 -130 279 -210 385 -185
248 -447 436 -741 534 -159 53 -287 75 -469 81 -47 2 -114 6 -150 9 -36 4 -90
9 -120 12 -30 3 -71 7 -90 9 -19 2 -66 7 -105 10 -38 4 -81 8 -95 10 -14 2
-61 7 -105 10 -44 4 -91 8 -105 10 -14 2 -62 7 -107 10 -45 3 -90 7 -100 9
-10 2 -54 7 -98 10 -44 4 -96 9 -115 11 -57 7 -131 14 -200 20 -36 3 -81 7
-100 10 -19 2 -69 7 -110 10 -41 4 -86 8 -100 10 -14 2 -59 7 -100 10 -41 4
-93 8 -115 11 -41 4 -96 9 -200 19 -33 3 -78 7 -100 10 -22 2 -71 7 -110 10
-69 6 -104 10 -195 19 -25 3 -74 8 -110 11 -72 6 -133 12 -212 21 -29 3 -73 7
-98 9 -85 8 -499 48 -620 60 -25 2 -74 7 -110 10 -36 3 -81 8 -100 10 -19 3
-69 7 -110 10 -41 3 -86 8 -100 10 -14 2 -59 7 -100 10 -41 3 -86 8 -100 10
-14 2 -55 6 -93 9 -37 3 -97 9 -135 12 -37 3 -78 7 -92 9 -14 3 -59 7 -101 10
-41 3 -86 7 -99 10 -14 3 -63 7 -110 10 -47 4 -96 8 -110 10 -24 4 -83 10
-205 21 -33 3 -76 7 -95 9 -19 2 -64 7 -100 10 -67 6 -126 12 -195 19 -22 3
-76 7 -120 11 -44 3 -91 8 -105 10 -14 3 -60 7 -102 10 -43 4 -87 8 -97 10
-11 2 -59 7 -107 10 -48 4 -96 8 -107 10 -10 3 -39 5 -63 6 -24 2 -41 6 -37 9
5 4 125 57 268 120 143 62 278 121 300 131 22 10 274 120 560 244 286 124 534
232 550 240 44 20 281 124 330 145 11 4 40 17 65 28 56 25 555 243 753 328 81
36 171 75 200 88 45 21 87 39 257 113 19 8 44 19 55 23 11 5 46 20 78 35 33
14 183 80 335 146 153 66 291 127 307 134 17 8 161 70 320 140 160 69 304 132
320 140 17 8 86 39 155 68 69 30 145 63 170 74 25 12 79 35 120 53 41 17 99
42 128 56 29 13 55 24 57 24 3 0 44 18 91 40 47 22 87 40 89 40 4 0 306 132
392 171 23 10 44 19 47 19 2 0 37 15 78 34 40 18 138 61 218 96 236 101 290
128 395 198 486 322 861 770 1085 1296 39 94 117 312 124 350 2 11 11 46 20
76 8 30 17 66 20 80 2 14 7 36 10 50 6 27 13 63 22 120 3 19 7 46 10 60 26
141 37 497 20 665 -13 137 -40 311 -58 380 -5 22 -11 47 -13 55 -19 97 -88
307 -148 450 -379 906 -1171 1548 -2147 1744 -41 8 -95 17 -120 21 -25 3 -61
8 -80 10 -102 14 -161 18 -327 20 -101 1 -184 1 -185 -1z"/>
</g>
</svg>
