<svg xmlns="http://www.w3.org/2000/svg" version="1.1" xmlns:xlink="http://www.w3.org/1999/xlink" width="28" height="36"><svg width="28" height="36" viewBox="0 0 28 36" fill="none" xmlns="http://www.w3.org/2000/svg">
<path fill-rule="evenodd" clip-rule="evenodd" d="M16.9667 6.10563L17.2538 5.81826L17.7535 5.31879L18.0425 5.02984C18.3526 4.71183 18.683 4.49129 19.3388 4.97411C19.4783 5.07659 19.6217 5.173 19.7638 5.26967C21.7241 6.60535 23.821 7.63465 26.1844 8.06121C27.4617 8.29153 27.6033 8.16106 27.6564 9.41856C28.3069 24.8113 22.961 31.2864 15.5341 34.837C15.3901 34.9057 15.2451 34.9738 15.0993 35.0404C13.6641 35.6981 13.8804 35.6254 12.4134 34.9788C12.2269 34.8967 12.0429 34.813 11.8614 34.7279C2.67456 30.4274 -0.327235 22.4505 0.0277505 9.70857C0.0322407 9.5361 0.0338254 9.36124 0.0441264 9.18666C0.10197 8.18298 0.271011 8.22735 1.25567 7.97194C1.4049 7.93338 1.55519 7.90116 1.7039 7.86418C6.16578 6.74798 10.1121 4.53592 13.3968 0.924526C13.4641 0.850307 13.5365 0.778465 13.5988 0.699227C13.7953 0.449628 14.0161 0.434044 14.2536 0.655382L14.4387 0.855854L15.4482 1.95013L15.6894 2.21161C15.9242 2.39307 15.9487 2.75519 15.7483 2.96569C15.6051 3.11598 15.4612 3.26442 15.3167 3.41075C12.2003 6.56388 8.6932 8.78783 4.83854 10.1798C4.60479 10.2643 4.36998 10.347 4.13333 10.4241C3.30239 10.6943 3.11486 10.6879 3.10191 11.6845C3.09954 11.8575 3.09716 12.0294 3.0961 12.1995C3.02215 22.8412 6.07096 28.002 12.4979 31.5658C12.6493 31.6495 12.8027 31.733 12.9578 31.8149C13.9847 32.36 13.7837 32.3307 14.8415 31.8056C14.9469 31.7533 15.0518 31.7002 15.155 31.6466C21.9027 28.1517 25.0645 21.6687 24.8062 12.3353C24.7983 12.05 24.784 11.7619 24.7729 11.4713C24.7373 10.5635 24.3731 10.6193 23.6773 10.4423C23.1253 10.3018 22.5891 10.1182 22.0619 9.91987C20.3832 9.28782 18.8121 8.41488 17.3177 7.37211C17.2031 7.29208 17.0906 7.20756 16.9746 7.12885C16.5721 6.85627 16.5045 6.64022 16.9667 6.10563Z" fill="#2F528F"></path>
<path fill-rule="evenodd" clip-rule="evenodd" d="M12.9424 11.716L12.3296 12.2287L7.32867 16.4119L7.06692 16.6311C6.48664 17.0928 6.48822 17.055 6.49298 17.8353L6.49588 18.1308L6.51252 21.2478C6.51992 21.7736 6.48954 21.7681 6.91109 21.7665H9.01485C9.58985 21.757 9.60042 21.79 9.60016 21.2708L9.58986 18.6189L9.58801 18.3598C9.5917 17.9993 9.54548 17.9774 9.8759 17.7457L10.0431 17.6219L13.8808 14.7791L17.5847 17.5534L17.7315 17.6636C18.2888 18.0812 18.1935 17.9256 18.1898 18.6279L18.1885 18.8611L18.1835 21.2198L18.1827 21.3722C18.18 21.79 18.1314 21.7589 18.5649 21.7589H18.6932H20.7302H20.8628C21.2244 21.7589 21.214 21.7647 21.2204 21.397V21.2502V18.0355V17.6586C21.2117 17.1134 21.2479 17.0099 20.6911 16.5548L20.3865 16.3028L15.1502 11.9682L14.7427 11.6307C13.8431 10.894 13.5771 11.1595 12.9424 11.716Z" fill="#E2725B"></path>
<path d="M15.0776 18.9316H12.6284C12.4647 18.9316 12.332 19.1555 12.332 19.4316V24.3196C12.332 24.5957 12.4647 24.8195 12.6284 24.8195H15.0776C15.2413 24.8195 15.374 24.5957 15.374 24.3196V19.4316C15.374 19.1555 15.2413 18.9316 15.0776 18.9316Z" fill="#E2725B"></path>
</svg><style>@media (prefers-color-scheme: light) { :root { filter: none; } }
@media (prefers-color-scheme: dark) { :root { filter: none; } }
</style></svg>