<?xml version="1.0" standalone="no"?>
<!DOCTYPE svg PUBLIC "-//W3C//DTD SVG 20010904//EN"
 "http://www.w3.org/TR/2001/REC-SVG-20010904/DTD/svg10.dtd">
<svg version="1.0" xmlns="http://www.w3.org/2000/svg"
 width="512.000000pt" height="512.000000pt" viewBox="0 0 512.000000 512.000000"
 preserveAspectRatio="xMidYMid meet">
<metadata>
Created by potrace 1.14, written by Peter Selinger 2001-2017
</metadata>
<g transform="translate(0.000000,512.000000) scale(0.100000,-0.100000)"
fill="#000000" stroke="none">
<path d="M0 2560 l0 -2560 2560 0 2560 0 0 2560 0 2560 -2560 0 -2560 0 0
-2560z m1690 1162 l0 -658 552 -525 c303 -288 587 -557 631 -598 l78 -74 267
266 c147 147 270 267 275 267 4 0 7 -252 7 -559 l0 -559 -272 -266 c-150 -146
-276 -266 -280 -266 -4 0 -480 444 -1058 986 l-1050 986 0 829 0 829 425 0
425 0 0 -658z m2207 266 l393 -393 0 -200 0 -200 -395 -395 -395 -395 0 583 0
582 -370 0 -370 0 0 405 0 405 372 0 373 0 392 -392z"/>
</g>
</svg>
