<?xml version="1.0" encoding="utf-8"?>
<!-- Generator: Adobe Illustrator 26.4.1, SVG Export Plug-In . SVG Version: 6.00 Build 0)  -->
<svg version="1.1" id="Livello_1" xmlns="http://www.w3.org/2000/svg" xmlns:xlink="http://www.w3.org/1999/xlink" x="0px" y="0px"
	 viewBox="0 0 300 300" style="enable-background:new 0 0 300 300;" xml:space="preserve">
<g>
	<path d="M95.3,252.2v-85.9L15,45.3h41.6l57.1,88.7l56.5-88.7h41.6l-80,121v85.9H95.3z"/>
	<path d="M171.3,189.8c0-38.4,28.5-64.6,64.1-64.6c24.5,0,39.9,11.8,49.6,26.4l-15.9,8.4c-6.6-10.5-18.9-18.2-33.7-18.2
		c-25.3,0-44.8,19.9-44.8,48c0,27.9,19.5,48,44.8,48c14.8,0,27.2-7.7,33.7-18.2L285,228c-9.9,14.6-25.1,26.4-49.6,26.4
		C199.8,254.5,171.3,228.2,171.3,189.8z"/>
</g>
</svg>
