<?xml version="1.0" standalone="no"?>
<!DOCTYPE svg PUBLIC "-//W3C//DTD SVG 20010904//EN"
 "http://www.w3.org/TR/2001/REC-SVG-20010904/DTD/svg10.dtd">
<svg version="1.0" xmlns="http://www.w3.org/2000/svg"
 width="512.000000pt" height="512.000000pt" viewBox="0 0 512.000000 512.000000"
 preserveAspectRatio="xMidYMid meet">
<metadata>
Created by potrace 1.14, written by Peter Selinger 2001-2017
</metadata>
<g transform="translate(0.000000,512.000000) scale(0.100000,-0.100000)"
fill="#000000" stroke="none">
<path d="M3097 4529 c-45 -24 -69 -61 -98 -149 -32 -96 -100 -226 -160 -308
-30 -39 -57 -72 -60 -72 -3 0 -9 32 -12 71 -17 206 -111 345 -265 394 -95 30
-182 1 -226 -75 -17 -28 -21 -52 -21 -120 0 -101 20 -166 70 -229 19 -24 35
-49 35 -56 0 -7 -26 -44 -57 -82 -32 -38 -134 -163 -228 -278 -176 -217 -309
-368 -500 -565 -137 -143 -237 -262 -380 -455 -141 -190 -357 -503 -434 -630
-128 -209 -192 -404 -192 -585 0 -152 22 -232 86 -308 62 -74 224 -113 378
-93 228 30 381 107 592 296 126 113 173 147 490 357 362 240 543 369 1002 717
l44 34 -7 -169 c-6 -150 -4 -182 14 -279 12 -61 28 -195 37 -300 8 -104 20
-244 26 -310 25 -292 22 -855 -8 -1253 l-6 -82 71 0 70 0 6 108 c4 59 9 128
12 153 l5 46 100 -26 c87 -23 101 -24 109 -11 12 19 46 126 55 173 7 35 6 36
-37 47 -23 7 -76 23 -116 37 -40 14 -78 23 -86 20 -11 -4 -14 61 -19 361 -4
202 -9 378 -12 392 l-7 26 149 24 c148 25 183 39 183 75 0 23 -59 83 -117 121
-30 19 -86 59 -126 89 -40 31 -82 58 -93 61 -19 5 -22 15 -28 97 -4 51 -16
141 -28 201 -20 101 -20 121 -11 296 11 214 14 222 99 292 82 68 107 122 60
134 -36 9 -74 -15 -281 -181 -337 -270 -636 -491 -977 -722 -133 -90 -172
-113 -179 -102 -5 8 -9 18 -9 22 0 21 -55 145 -77 175 -49 65 -128 81 -182 37
-35 -31 -46 -61 -61 -180 -30 -235 -76 -353 -173 -440 -103 -94 -271 -204
-313 -205 -5 0 -20 33 -33 73 -13 39 -30 84 -37 99 -13 26 -12 27 30 52 51 30
116 101 116 128 0 23 -49 48 -93 48 -19 0 -59 -13 -89 -29 l-55 -28 -47 63
-47 63 30 42 c28 37 71 135 71 160 0 5 -12 14 -26 19 -44 17 -101 -5 -153 -59
-40 -42 -49 -47 -68 -38 -13 5 -23 16 -23 24 0 20 84 184 142 277 63 100 301
441 417 596 121 162 211 268 383 448 82 86 198 212 256 280 58 67 109 122 112
122 3 0 17 -22 32 -49 45 -82 134 -131 236 -131 79 0 131 18 139 47 9 38 -17
58 -58 44 -49 -17 -125 -13 -168 8 -47 25 -95 78 -111 125 -11 35 -11 35 77
143 166 204 240 298 252 320 19 37 12 70 -25 118 -43 57 -68 115 -43 99 6 -3
17 -22 25 -40 16 -38 44 -46 44 -13 0 30 -17 58 -62 105 -39 41 -40 43 -33 93
4 28 11 51 16 51 26 0 91 -44 128 -86 47 -54 66 -107 86 -246 7 -53 18 -105
24 -117 25 -47 86 -64 146 -41 43 16 143 119 200 205 67 102 105 179 140 283
16 45 31 82 34 82 3 0 20 -9 38 -20 68 -41 112 -151 83 -206 -11 -19 -21 -24
-52 -24 -56 0 -111 -32 -190 -111 -104 -105 -129 -175 -85 -240 55 -82 183
-149 300 -157 58 -4 75 -1 122 22 106 52 160 159 200 392 33 195 35 198 87
191 78 -10 138 -78 138 -156 0 -66 -27 -104 -99 -141 -52 -26 -74 -47 -162
-157 -153 -192 -178 -260 -118 -327 72 -82 181 -73 343 30 76 48 210 114 232
114 3 0 -12 -20 -34 -44 -42 -45 -79 -101 -100 -149 -10 -23 -9 -29 3 -33 34
-14 60 5 89 65 16 33 54 87 85 121 62 69 89 79 211 79 98 1 112 -5 104 -43
-11 -53 -52 -131 -94 -179 -27 -30 -70 -60 -130 -91 -124 -64 -125 -68 -125
-271 1 -165 6 -216 56 -515 16 -97 35 -247 44 -335 8 -88 22 -229 31 -313 9
-84 14 -155 12 -158 -3 -2 -25 0 -49 5 -66 16 -144 14 -159 -4 -35 -42 24 -80
145 -92 l80 -8 8 -59 c5 -32 6 -60 3 -63 -2 -2 -38 1 -80 7 -94 14 -119 5
-114 -43 2 -26 9 -34 38 -44 19 -7 60 -12 90 -13 30 0 61 -4 69 -9 13 -8 32
-125 58 -355 6 -54 5 -58 -13 -52 -10 3 -39 10 -64 15 -25 5 -52 12 -61 15
-18 8 -69 -29 -69 -50 0 -8 -34 -86 -76 -172 -133 -275 -134 -278 -80 -312 53
-32 229 -118 259 -125 67 -17 106 25 138 148 11 38 21 72 23 74 3 4 12 -60 62
-449 l29 -218 97 0 c54 0 98 3 98 8 0 4 -9 20 -19 36 -16 23 -17 34 -9 50 8
15 7 22 -6 31 -8 7 -13 15 -9 19 4 3 -3 20 -15 36 -27 35 -29 88 -4 106 16 12
16 14 0 42 -17 29 -17 30 4 44 17 12 19 18 10 34 -8 15 -7 23 5 36 14 16 13
19 -15 43 -43 36 -50 64 -22 85 18 13 20 21 12 36 -5 10 -20 50 -32 87 -20 60
-21 73 -10 106 10 33 9 43 -12 97 -17 42 -22 65 -16 79 6 14 -2 50 -31 128
-21 59 -35 110 -30 113 14 9 10 61 -6 78 -17 17 -20 47 -5 62 8 8 5 21 -7 44
-12 22 -14 34 -7 37 6 2 19 10 30 17 17 13 17 15 1 39 -9 15 -26 35 -38 46
l-21 20 28 24 28 25 -32 27 c-31 26 -43 55 -22 55 14 0 12 28 -2 32 -8 3 -4 9
10 17 30 16 28 29 -10 69 l-33 34 23 15 c29 20 28 39 -4 47 -21 6 -23 10 -14
21 8 10 8 18 -1 33 -11 17 -9 23 16 45 l29 25 -37 41 c-43 47 -50 93 -17 111
28 15 25 33 -11 59 l-31 23 21 22 c19 20 20 24 6 36 -22 18 -18 60 7 88 21 22
22 24 5 33 -20 12 -22 40 -5 57 10 10 10 15 -2 22 -8 5 -11 12 -7 16 4 4 -10
26 -31 48 -37 40 -39 47 -60 176 -32 195 -45 360 -37 454 3 45 10 86 13 92 4
5 38 24 75 43 135 67 254 227 265 355 4 50 2 55 -24 73 -23 15 -52 19 -160 21
-237 7 -435 -51 -636 -185 -79 -53 -126 -57 -142 -12 -13 38 17 93 123 224 73
91 98 115 141 135 58 27 114 85 131 138 18 56 7 144 -25 192 -55 84 -177 132
-278 110 -117 -25 -159 -80 -183 -240 -27 -185 -79 -335 -124 -359 -56 -31
-251 85 -251 148 0 24 68 111 113 145 20 16 47 26 66 26 57 0 136 53 167 112
47 90 -21 245 -130 297 -56 28 -147 28 -199 0z m-1267 -2619 c10 -5 28 -25 40
-44 l21 -35 -23 -26 c-13 -15 -41 -36 -62 -47 l-39 -20 7 66 c7 66 20 116 31
116 4 0 15 -4 25 -10z m77 -204 c-13 -13 -54 -36 -91 -50 l-69 -26 7 32 c4 18
10 34 14 36 4 1 36 20 72 41 l65 39 13 -23 c10 -21 9 -27 -11 -49z m43 -43 c0
-12 -43 -46 -117 -95 -65 -42 -119 -76 -121 -73 -2 2 4 27 13 57 l17 54 97 36
c116 43 111 42 111 21z m1609 -213 c1 -3 -28 -14 -63 -23 -36 -9 -71 -20 -80
-23 -13 -5 -15 6 -13 73 l1 80 77 -51 c43 -28 78 -53 78 -56z m653 -477 c51
-14 57 -18 62 -47 5 -25 -2 -51 -27 -107 -19 -41 -46 -117 -61 -169 -15 -52
-29 -96 -31 -98 -2 -2 -184 85 -194 94 -2 2 26 72 62 156 36 84 68 163 72 176
7 24 7 24 117 -5z"/>
<path d="M2730 3285 c-8 -10 -11 -33 -8 -65 9 -94 119 -217 247 -277 97 -46
179 -25 356 95 61 41 70 51 70 77 0 50 -33 45 -140 -25 -120 -77 -159 -93
-207 -87 -82 11 -219 131 -253 222 -28 77 -41 89 -65 60z"/>
<path d="M1731 2097 c-15 -19 -4 -27 41 -27 51 0 102 -22 149 -64 38 -35 66
-39 89 -11 14 17 -39 71 -95 96 -49 23 -167 26 -184 6z"/>
<path d="M3920 35 l-34 -35 67 0 c63 0 67 1 67 23 0 56 -51 62 -100 12z"/>
</g>
</svg>
